<svg width="65" height="56" viewBox="0 0 65 56" fill="none" xmlns="http://www.w3.org/2000/svg">
<path d="M11.0487 55.0452L9.42319 50.0333H10.3785L11.5833 53.8902H11.2625L12.446 50.0333H13.166L14.3495 53.8902H14.0215L15.2335 50.0333H16.1888L14.5562 55.0452H13.8362L12.6456 51.1954H12.9593L11.7758 55.0452H11.0487ZM16.4967 55.0452V50.0333H17.4663V55.0452H16.4967ZM17.2096 55.0452V54.1897H19.9829V55.0452H17.2096ZM17.2096 52.8993V52.0723H19.7334V52.8993H17.2096ZM17.2096 50.8888V50.0333H19.9473V50.8888H17.2096ZM20.0582 55.0452L22.0758 50.0333H22.8671L24.8776 55.0452H23.8438L22.2896 50.9316H22.6461L21.0706 55.0452H20.0582ZM21.1276 54.1112V53.2985H23.8224V54.1112H21.1276ZM25.113 55.0452V50.0333H26.0826V55.0452H25.113ZM25.826 55.0452V54.1825H28.3782V55.0452H25.826ZM29.3876 55.0452V50.1403H30.3643V55.0452H29.3876ZM27.7907 50.896V50.0333H31.9613V50.896H27.7907ZM32.2743 55.0452V50.0333H33.2439V55.0452H32.2743ZM35.4183 55.0452V50.0333H36.3878V55.0452H35.4183ZM32.8874 52.885V52.0295H35.6892V52.885H32.8874ZM40.8767 53.1844V52.3931H42.0388C42.1908 52.3931 42.3287 52.3622 42.4522 52.3004C42.5758 52.2386 42.6733 52.1507 42.7445 52.0366C42.8158 51.9178 42.8515 51.7752 42.8515 51.6089C42.8515 51.4473 42.8158 51.3071 42.7445 51.1883C42.6733 51.0694 42.5758 50.9791 42.4522 50.9173C42.3287 50.8556 42.1908 50.8247 42.0388 50.8247H40.8767V50.0333H42.1386C42.457 50.0333 42.7422 50.0975 42.9941 50.2258C43.2507 50.3541 43.4527 50.5371 43.6 50.7748C43.7474 51.0077 43.8211 51.2857 43.8211 51.6089C43.8211 51.9321 43.7474 52.2125 43.6 52.4501C43.4527 52.683 43.2507 52.8636 42.9941 52.992C42.7422 53.1203 42.457 53.1844 42.1386 53.1844H40.8767ZM40.1638 55.0452V50.0333H41.1333V55.0452H40.1638ZM44.1517 55.0452V50.0333H45.1212V55.0452H44.1517ZM44.8646 55.0452V54.1825H47.4169V55.0452H44.8646ZM49.5574 55.1165C49.1629 55.1165 48.8112 55.0309 48.5023 54.8598C48.1981 54.684 47.9581 54.4439 47.7822 54.1398C47.6064 53.8356 47.5184 53.491 47.5184 53.106V50.0333H48.488V53.1345C48.488 53.3579 48.5332 53.5504 48.6235 53.712C48.7185 53.8736 48.8469 53.9995 49.0085 54.0899C49.1748 54.1754 49.3578 54.2182 49.5574 54.2182C49.7618 54.2182 49.9424 54.1754 50.0992 54.0899C50.2561 53.9995 50.3796 53.8736 50.4699 53.712C50.565 53.5504 50.6125 53.3603 50.6125 53.1417V50.0333H51.5892V53.1131C51.5892 53.4981 51.5013 53.8427 51.3254 54.1469C51.1496 54.4463 50.9096 54.684 50.6054 54.8598C50.306 55.0309 49.9566 55.1165 49.5574 55.1165ZM53.5888 55.1165C53.1848 55.1165 52.8379 55.0475 52.5479 54.9097C52.2628 54.7719 52.0037 54.5651 51.7709 54.2895L52.4125 53.6478C52.5598 53.8427 52.7309 53.9948 52.9258 54.1041C53.1207 54.2087 53.3583 54.261 53.6387 54.261C53.8906 54.261 54.0902 54.211 54.2376 54.1112C54.3897 54.0114 54.4657 53.8736 54.4657 53.6977C54.4657 53.5457 54.4229 53.4221 54.3374 53.327C54.2518 53.232 54.1378 53.1512 53.9952 53.0846C53.8573 53.0181 53.7029 52.9587 53.5318 52.9064C53.3654 52.8494 53.1967 52.7852 53.0256 52.7139C52.8592 52.6426 52.7048 52.5547 52.5622 52.4501C52.4244 52.3408 52.3127 52.203 52.2271 52.0366C52.1416 51.8655 52.0988 51.6517 52.0988 51.395C52.0988 51.0908 52.1725 50.8318 52.3198 50.6179C52.4671 50.404 52.6691 50.2401 52.9258 50.126C53.1824 50.0119 53.4724 49.9549 53.7956 49.9549C54.1378 49.9549 54.4467 50.0191 54.7223 50.1474C54.998 50.2757 55.2238 50.4421 55.3996 50.6464L54.758 51.2881C54.6107 51.1265 54.4586 51.0077 54.3017 50.9316C54.1496 50.8556 53.9762 50.8175 53.7813 50.8175C53.5579 50.8175 53.3821 50.8603 53.2537 50.9459C53.1254 51.0314 53.0612 51.155 53.0612 51.3166C53.0612 51.4544 53.104 51.5661 53.1896 51.6517C53.2751 51.7372 53.3868 51.8109 53.5246 51.8727C53.6672 51.9345 53.8217 51.9939 53.988 52.0509C54.1591 52.1079 54.3279 52.1721 54.4942 52.2434C54.6653 52.3147 54.8198 52.4074 54.9576 52.5214C55.1002 52.6355 55.2143 52.7828 55.2998 52.9634C55.3854 53.1393 55.4281 53.3579 55.4281 53.6193C55.4281 54.0851 55.2642 54.4511 54.9362 54.7172C54.6083 54.9834 54.1591 55.1165 53.5888 55.1165Z" fill="white"/>
<g clip-path="url(#clip0_1_381)">
<path d="M39.8 32.6753L51.9721 44.9005H63.4719L45.4407 27.0886L39.8 32.6753Z" fill="white"/>
<path d="M39.7811 0.0143828L39.7461 8.18724L51.173 8.13151L25.884 33.7755C23.8231 35.873 21.3404 36.9217 18.4357 36.9217C15.531 36.9217 13.0479 35.873 10.9864 33.7755C8.92615 31.6811 7.8957 29.1569 7.8951 26.2031C7.8945 23.2493 8.92495 20.7252 10.9864 18.6307C13.0479 16.5333 15.531 15.4846 18.4357 15.4846C20.8927 15.4846 23.0465 16.2355 24.897 17.7372L30.5026 12.0454C27.0999 8.98907 23.0776 7.46093 18.4357 7.46093C13.3455 7.46093 9.00076 9.2911 5.40153 12.9515C1.80231 16.6118 0.00179781 21.029 0 26.2031C0 31.3784 1.80021 35.7957 5.40063 39.4548C9.00105 43.114 13.3458 44.9442 18.4348 44.9454C23.5244 44.9454 27.8691 43.1152 31.4689 39.4548L56.6833 14.1955V25.0795H64.8184V0L39.7811 0.0143828Z" fill="white"/>
</g>
<defs>
<clipPath id="clip0_1_381">
<rect width="64.8202" height="44.9454" fill="white"/>
</clipPath>
</defs>
</svg>
