<svg width="98" height="68" viewBox="0 0 98 68" fill="none" xmlns="http://www.w3.org/2000/svg">
<g clip-path="url(#clip0_1_55)">
<path d="M59.7001 49.013L77.9582 67.3507H95.2078L68.161 40.6329L59.7001 49.013Z" fill="white"/>
<path d="M59.6717 0.0215743L59.6191 12.2809L76.7595 12.1973L38.826 50.6633C35.7347 53.8095 32.0105 55.3826 27.6535 55.3826C23.2965 55.3826 19.5719 53.8095 16.4797 50.6633C13.3892 47.5216 11.8435 43.7354 11.8427 39.3047C11.8418 34.874 13.3874 31.0878 16.4797 27.9461C19.5719 24.7999 23.2965 23.2269 27.6535 23.2269C31.339 23.2269 34.5697 24.3532 37.3455 26.6059L45.7539 18.068C40.6499 13.4836 34.6165 11.1914 27.6535 11.1914C20.0182 11.1914 13.5011 13.9367 8.1023 19.4272C2.70346 24.9177 0.00269672 31.5435 0 39.3047C0 47.0677 2.70032 53.6935 8.10095 59.1822C13.5016 64.671 20.0187 67.4162 27.6522 67.418C35.2866 67.418 41.8037 64.6728 47.2034 59.1822L85.0249 21.2933V37.6193H97.2276V0L59.6717 0.0215743Z" fill="white"/>
</g>
<defs>
<clipPath id="clip0_1_55">
<rect width="97.2303" height="67.418" fill="white"/>
</clipPath>
</defs>
</svg>
