<svg width="180" height="179" viewBox="0 0 180 179" fill="none" xmlns="http://www.w3.org/2000/svg">
<g filter="url(#filter0_f_314_394)">
<path d="M33.2685 124.592L43.8186 128.026L42.485 127.693L31.9275 124.247L33.2685 124.592ZM42.2571 140.217L52.8146 143.663L54.2305 143.42L43.6805 139.987L42.2571 140.217ZM57.2915 150.265L67.8342 153.686L69.1922 152.892L58.6421 149.458L57.2915 150.265ZM75.1846 153.093L85.7347 156.527L86.8513 155.275L76.2753 151.741L75.1846 153.093ZM93.7877 148.384L104.338 151.818L105.106 150.244L94.5484 146.798L93.7877 148.384ZM110.882 136.729L121.432 140.163L121.69 138.512L111.14 135.078L110.882 136.729ZM134.709 77.1756L145.259 80.6094L144.179 79.7584L133.607 76.2876L134.709 77.1756ZM124.344 119.476L134.98 122.882L134.761 121.379L124.211 117.945L124.344 119.476ZM132.64 98.8348L143.197 102.281L142.454 101.047L131.896 97.6013L132.64 98.8348Z" fill="url(#paint0_linear_314_394)"/>
<path d="M75.2301 28.4675L85.0592 32.3436L86.2114 33.0143L76.3823 29.1382L75.2301 28.4675ZM93.5586 24.1692L103.388 28.0452L102.526 26.8181L92.6967 22.9421L93.5586 24.1692ZM110.035 27.0347L119.864 30.9108L119.445 29.3328L109.59 25.437L110.035 27.0347ZM123.864 37.4083L133.693 41.2843L133.735 39.5499L123.894 35.6808L123.864 37.4083ZM133.324 54.0316L143.234 57.8792L143.73 56.1297L133.833 52.3086L133.324 54.0316ZM115.316 137.206L125.138 141.068L126.459 141.131L116.699 137.234L115.316 137.206ZM137.361 74.8613L147.184 78.724L148.037 77.2702L138.214 73.4074L137.361 74.8613ZM127.776 119.127L137.599 122.989L138.918 122.454L129.077 118.585L127.776 119.127ZM135.422 97.4887L145.251 101.365L146.444 100.267L136.547 96.4463L135.422 97.4887Z" fill="url(#paint1_linear_314_394)"/>
<path d="M113.037 25.3737L123.233 28.5169L123.648 28.6561L113.458 25.493L113.049 25.3663" fill="#947272"/>
<path d="M78.6095 152.921L88.8258 156.483C83.7093 156.78 78.5678 156.065 73.6963 154.38L63.4801 150.818C64.6572 151.226 65.858 151.588 67.0881 151.883C70.8659 152.791 74.7481 153.141 78.6095 152.921ZM110.487 28.1186C111.078 28.4301 111.656 28.7485 112.229 29.0867L112.673 29.3448C113.347 29.7446 114.01 30.1839 114.66 30.6302L115.135 30.9719C115.623 31.3066 116.105 31.661 116.582 32.0352L117.188 32.5222L118.472 33.5914L119.006 34.0679C119.581 34.5885 120.144 35.1161 120.682 35.6576L130.918 39.2252C130.359 38.6844 129.796 38.1568 129.229 37.6423L129.114 37.4378L128.739 37.1252C128.322 36.7684 127.898 36.3989 127.498 36.1327C127.397 36.034 127.29 35.942 127.177 35.8573L126.885 35.633L125.438 34.5696L125.092 34.3081L125.034 34.2059C124.377 33.7468 123.679 33.2761 123.027 32.9147L122.97 32.8124L122.634 32.6287C122.061 32.2905 121.483 31.9721 120.892 31.6606L120.556 31.477L120.281 31.3433C119.524 30.9725 118.754 30.6087 118.011 30.2635L107.505 26.7773C108.286 27.1016 109.048 27.4526 109.775 27.8571L110.487 28.1186ZM144.527 100.392L134.304 96.8172L133.789 98.8563L133.478 100.015L133.12 101.299L132.781 102.438L132.462 103.467C132.087 104.66 131.685 105.835 131.262 107.003L131.05 107.572C130.707 108.496 130.343 109.416 129.967 110.342C129.881 110.573 129.782 110.811 129.676 111.036C129.264 112.016 128.838 113.002 128.379 113.957C128.063 114.666 127.72 115.356 127.365 116.053L137.601 119.621C137.913 118.964 138.245 118.314 138.549 117.644L138.638 117.596C139.088 116.624 139.521 115.65 139.936 114.675L140.053 114.41L140.219 113.967C140.602 113.054 140.966 112.135 141.31 111.21L141.47 110.787L141.522 110.642C141.957 109.466 142.339 108.286 142.715 107.092L142.846 106.736L143.04 106.077C143.158 105.695 143.275 105.312 143.372 104.924L143.743 103.633L144.042 102.482L144.178 101.956L144.527 100.392ZM96.5914 148.104C96.1597 148.341 95.728 148.578 95.2713 148.712C94.2885 149.151 93.2985 149.577 92.2924 149.945C92.14 150.029 91.9876 150.112 91.8353 150.196C90.7911 150.585 89.7325 150.949 88.6452 151.261C86.0096 152.035 83.3052 152.568 80.565 152.852L90.7885 156.426C93.5321 156.134 96.2403 155.6 98.8813 154.829C99.9488 154.51 101.007 154.147 102.051 153.758L102.552 153.584C103.551 153.203 104.548 152.789 105.524 152.337C105.612 152.297 105.696 152.251 105.777 152.198C106.12 152.01 106.463 151.822 106.806 151.633L96.5914 148.104ZM122.676 37.9597L123.761 39.238L124.272 39.8783L125.331 41.2879L125.74 41.8666C126.219 42.5406 126.68 43.2414 127.128 43.949L127.344 44.3325L128.445 46.2882L128.784 46.889C129.158 47.5537 129.503 48.1672 129.823 48.9121L130.111 49.4234C130.506 50.1264 130.808 50.898 131.122 51.6626L141.414 55.1825C141.088 54.4249 140.755 53.687 140.39 52.9502L140.11 52.4518L139.063 50.4159L138.718 49.8023C138.351 49.1504 137.998 48.5241 137.624 47.8594L137.423 47.5015C137.012 46.7729 136.501 46.1 136.021 45.426L135.928 45.2599L135.683 44.8253L134.616 43.4029L134.422 43.0578L134.221 42.6999L133.148 41.4146L132.814 41.0288L132.454 40.6244L122.125 37.1579L122.676 37.9597ZM111.727 137.404C111.011 138.081 110.301 138.739 109.525 139.399L109.213 139.67C108.519 140.269 107.811 140.841 107.103 141.414C106.887 141.533 106.684 141.644 106.526 141.865C105.66 142.541 104.772 143.179 103.877 143.804L103.433 144.048C102.36 144.77 101.274 145.467 100.165 146.126C99.5682 146.453 98.9587 146.788 98.3746 147.109L108.598 150.683C109.157 150.376 109.728 150.063 110.3 149.749C110.325 149.726 110.355 149.709 110.388 149.7C111.519 149.08 112.591 148.358 113.656 147.622C113.749 147.58 113.838 147.531 113.923 147.476C113.986 147.451 114.046 147.418 114.101 147.378C115.003 146.766 115.883 146.116 116.749 145.439C116.838 145.391 116.927 145.342 117.016 145.293L117.341 145.014C118.056 144.454 118.757 143.869 119.451 143.27C119.543 143.228 119.632 143.179 119.717 143.124C119.717 143.124 119.781 143.089 119.806 143.075C120.536 142.424 121.254 141.779 122 141.068C122.08 141.032 122.156 140.99 122.229 140.942C122.627 140.557 123.012 140.178 123.403 139.779L113.186 136.218C112.742 136.462 112.282 136.915 111.828 137.348L111.727 137.404ZM132.758 55.8679L133.132 57.0345L133.458 58.0269L133.782 59.2214L134.077 60.2475L134.192 60.452C134.397 61.2596 134.583 62.0613 134.763 62.8828L134.944 63.7369L135.301 65.6995L135.461 66.6325C135.564 67.2286 135.641 67.8386 135.726 68.4615L135.85 69.3306C135.955 70.2265 136.055 71.1421 136.13 72.0716L146.346 75.6334C146.271 74.7038 146.178 73.801 146.066 72.8923L145.942 72.0232C145.865 71.4131 145.787 70.8031 145.677 70.1942L145.63 69.7852L145.53 69.2542L145.161 67.2986L144.986 66.4573L144.415 64.0265L144.315 63.8475L144.032 62.8145L143.696 61.627L143.383 60.6276L143.025 59.5191C142.778 58.7847 142.534 58.1154 142.247 57.3694L132.023 53.7949C132.36 54.3631 132.62 55.0906 132.86 55.8122L132.758 55.8679ZM125.169 120.153C124.684 121.005 124.185 121.831 123.666 122.651L123.37 123.099L122.101 125.067C121.919 125.334 121.737 125.601 121.547 125.856C121.184 126.39 120.812 126.912 120.441 127.433C120.252 127.688 120.057 127.962 119.855 128.223C119.459 128.759 119.042 129.289 118.639 129.812C118.46 130.027 118.302 130.247 118.137 130.455C117.547 131.18 116.964 131.885 116.348 132.592C115.731 133.298 115.337 133.749 114.786 134.336L125.002 137.897C125.522 137.344 126.035 136.779 126.527 136.207L126.591 136.172C127.194 135.473 127.791 134.761 128.367 134.043C128.367 134.043 128.482 133.98 128.496 133.888C128.511 133.796 128.747 133.566 128.869 133.399C129.28 132.889 129.689 132.346 130.086 131.811C130.2 131.748 130.277 131.589 130.35 131.482L130.672 131.021C131.062 130.494 131.433 129.972 131.785 129.456C131.9 129.276 132.029 129.121 132.138 128.961L132.331 128.654C132.768 128.013 133.241 127.318 133.62 126.692L133.855 126.312L133.918 126.277C134.437 125.457 134.929 124.618 135.421 123.779C135.421 123.779 135.499 123.652 135.548 123.592C135.871 123.013 136.193 122.435 136.509 121.843L126.209 118.311C125.93 118.849 125.558 119.488 125.169 120.153ZM136.393 78.503L136.389 79.0573C136.384 80.3482 136.334 81.6472 136.265 82.9405L136.217 83.6527C136.127 84.9401 136.005 86.2287 135.876 87.5045L135.797 88.1331C135.644 89.4554 135.464 90.759 135.238 92.0708C135.109 92.8446 134.967 93.6255 134.812 94.4132L145.104 97.9331L145.496 95.6767C145.729 94.3777 145.902 93.0612 146.075 91.7448L146.146 91.1034C146.295 89.8334 146.38 88.5658 146.482 87.2714L146.53 86.5592C146.599 85.2659 146.649 83.9668 146.647 82.6631L146.65 82.1089C146.657 80.7331 146.638 79.3714 146.56 77.9922L136.344 74.4304C136.386 75.7457 136.412 77.1203 136.418 78.4891L136.393 78.503Z" fill="url(#paint2_linear_314_394)"/>
<path d="M88.881 149.912C86.2505 150.686 83.5514 151.218 80.8167 151.501L79.909 150.325L78.8487 151.629C73.59 151.936 68.3063 151.166 63.3199 149.365L62.8707 147.852L61.5575 148.675C56.6448 146.579 52.1815 143.531 48.4278 139.71L48.4328 138.031L47.0569 138.268C43.2085 133.966 40.1124 129.049 37.9027 123.728L38.3829 122.039L37.0871 121.679C34.8849 115.749 33.5242 109.551 33.0453 103.269L33.8966 101.828L32.8612 100.957C32.5531 94.2071 33.0796 87.4592 34.4287 80.8667L35.6381 79.7987L34.984 78.4825C36.516 71.8042 38.8305 65.3427 41.8798 59.2314L43.2406 58.7003L43.0427 57.1329C46.1653 51.2729 50.0126 45.8384 54.4954 40.9555L55.8665 41.0054L56.1101 39.2789C60.4107 34.8784 65.3378 31.1386 70.7367 28.1769L71.9357 28.8077L72.6794 27.1747C75.2388 25.9186 77.9013 24.8791 80.6396 24.067C83.2765 23.2926 85.9825 22.7625 88.7239 22.4835L89.6315 23.6602L90.6991 22.3686C95.9509 22.0593 101.228 22.8278 106.208 24.6271L106.677 26.1458L107.759 25.2651C112.67 27.3615 117.129 30.412 120.876 34.2379L120.871 35.9169L122.253 35.6594C126.099 39.9692 129.193 44.8933 131.401 50.2194L130.921 51.9086L132.222 52.2484C134.431 58.1862 135.796 64.3927 136.279 70.6842L135.42 72.1123L136.463 72.9968C136.783 79.7357 136.281 86.475 134.966 93.0646L133.756 94.1326L134.474 95.4139C132.938 102.095 130.619 108.559 127.565 114.672L126.219 115.229L126.417 116.796C123.321 122.67 119.501 128.123 115.045 133.029L113.681 132.992L113.43 134.706C109.133 139.134 104.2 142.894 98.7873 145.867L97.5884 145.237L96.8519 146.882C94.2859 148.111 91.6199 149.124 88.881 149.912Z" fill="url(#paint3_linear_314_394)"/>
<path style="mix-blend-mode:screen" opacity="0.6" d="M134.493 95.4503L133.776 94.169L134.985 93.101C136.3 86.5114 136.803 79.7721 136.482 73.0332L135.439 72.1487L136.298 70.7207C135.815 64.4291 134.45 58.2226 132.242 52.2848L130.94 51.945L131.421 50.2558C129.213 44.9297 126.118 40.0056 122.272 35.6959L120.891 35.9534L120.896 34.2744C117.15 30.4312 112.687 27.365 107.77 25.2561L106.457 26.0796L105.987 24.5609C101.008 22.7616 95.7303 21.9931 90.4785 22.3023L89.411 23.594L88.5033 22.4174C85.7995 22.6996 83.1307 23.226 80.5293 23.9904C77.791 24.8025 75.1285 25.842 72.5691 27.0981L71.8254 28.7311L70.6265 28.1003C65.2275 31.062 60.3004 34.8019 55.9998 39.2023L55.7562 40.9288L54.3851 40.8789C49.9023 45.7618 46.055 51.1962 42.9324 57.0563L43.1303 58.6237L41.7695 59.1548C38.7202 65.2661 36.4057 71.7276 34.8736 78.4059L35.5278 79.7221L34.3185 80.7901C32.9997 87.3766 32.5011 94.1146 32.8341 100.851L33.8695 101.723L33.0181 103.163C33.4983 109.45 34.8614 115.653 37.0672 121.587L38.363 121.946L37.8829 123.635C40.0926 128.956 43.1886 133.873 47.037 138.175L48.4129 137.938L48.4079 139.617C52.1616 143.438 56.6249 146.486 61.5376 148.583L62.8508 147.759L63.3 149.272C68.2864 151.073 73.5701 151.844 78.8288 151.536L79.8892 150.232L80.7968 151.409C83.5315 151.125 86.2307 150.593 88.8612 149.819C91.6055 149.008 94.2746 147.971 96.8413 146.717L97.5778 145.072L98.7768 145.702C104.181 142.751 109.111 139.015 113.411 134.613L113.661 132.899L115.025 132.937C119.501 128.054 123.344 122.622 126.465 116.766L126.267 115.199L127.614 114.642C130.652 108.548 132.961 102.107 134.493 95.4503ZM125.842 115.031L126.102 116.798C123.028 122.544 119.253 127.876 114.862 132.674L113.361 132.629L113.075 134.547C108.862 138.839 104.046 142.495 98.7743 145.402L97.4078 144.679L96.6036 146.53C94.0981 147.753 91.4933 148.766 88.8153 149.56C86.2639 150.309 83.6475 150.829 80.9967 151.114L79.9633 149.772L78.7051 151.286C74.6777 151.5 70.6311 151.087 66.7097 150.06C65.6792 149.789 64.7247 149.477 63.6494 149.096L63.1019 147.319L61.555 148.288C56.7963 146.234 52.4691 143.275 48.8165 139.576L48.8261 137.61L47.2315 137.901C43.4916 133.696 40.4796 128.898 38.3234 123.711L38.8733 121.732L37.4133 121.346C35.2643 115.528 33.932 109.451 33.4549 103.292L34.4279 101.683L33.2414 100.66C32.9325 94.0417 33.4305 87.4234 34.7243 80.9522L36.0262 79.783L35.2788 78.3002C36.8032 71.7305 39.0853 65.3724 42.0794 59.3529L43.5615 58.7719L43.3138 56.9972C46.384 51.2476 50.1568 45.9111 54.5468 41.1085L56.0679 41.1596L56.3411 39.2491C60.5524 34.9463 65.3705 31.2837 70.647 28.374L72.0136 29.0968L72.8123 27.2659C75.3197 26.0357 77.9292 25.0199 80.6133 24.2292C83.1641 23.4776 85.7807 22.9573 88.4318 22.6746L89.4653 24.0167L90.7163 22.49C94.7467 22.2815 98.7954 22.6992 102.719 23.7283C103.749 23.9992 104.704 24.3119 105.772 24.6795L106.321 26.4893L107.874 25.5007C112.631 27.5537 116.955 30.5159 120.599 34.2194L120.59 36.186L122.197 35.8879C125.931 40.0974 128.942 44.8941 131.105 50.0775L130.555 52.0565L132.028 52.436C134.169 58.2562 135.501 64.3317 135.986 70.4899L135.006 72.0855L136.18 73.1157C136.483 79.7311 135.99 86.3458 134.71 92.8167L133.395 93.9929L134.135 95.4628C132.62 102.031 130.342 108.388 127.347 114.403L125.842 115.031Z" fill="url(#paint4_linear_314_394)"/>
<g style="mix-blend-mode:multiply" opacity="0.5">
<path d="M115.951 72.0246L104.272 75.612C101.43 64.4235 92.8774 59.2638 81.9516 62.6284C71.0258 65.9929 64.176 75.9781 63.7729 88.0724L52.7046 91.4836L53.7168 101.441L64.864 98.0183C66.6077 104.542 70.1437 108.899 74.9476 110.642L79.4056 99.7883C75.9974 98.4012 74.077 95.1815 73.5897 90.4227C73.233 87.2976 74.0052 84.1676 75.78 81.5443C77.5549 78.921 80.2275 76.9596 83.3609 75.9805C89.8127 74.0262 94.6103 77.2523 95.2734 83.7543L95.3052 84.0489C95.7317 88.2014 94.5844 92.3379 92.0689 95.7177L98.6045 102.989C102.685 98.0222 104.982 91.9367 105.167 85.6014L116.917 81.9907L115.951 72.0246Z" fill="#03A798"/>
</g>
<g style="mix-blend-mode:multiply" opacity="0.5">
<path d="M127.079 74.5484C128.974 102.926 111.529 131.589 88.2181 138.403C64.9069 145.217 44.3602 127.711 42.4583 99.3212C40.5564 70.931 58.0208 42.2736 81.3121 35.4535C104.603 28.6334 125.139 46.1792 127.079 74.5484ZM45.5983 98.4141C47.3515 124.673 66.3406 140.908 87.93 134.572C109.519 128.236 125.654 101.735 123.914 75.4694C122.173 49.2033 103.179 32.9885 81.5947 39.3045C60.0109 45.6205 43.8505 72.1352 45.5983 98.4141Z" fill="#03A798"/>
</g>
</g>
<defs>
<filter id="filter0_f_314_394" x="21.9272" y="12.2356" width="136.109" height="154.313" filterUnits="userSpaceOnUse" color-interpolation-filters="sRGB">
<feFlood flood-opacity="0" result="BackgroundImageFix"/>
<feBlend mode="normal" in="SourceGraphic" in2="BackgroundImageFix" result="shape"/>
<feGaussianBlur stdDeviation="5" result="effect1_foregroundBlur_314_394"/>
</filter>
<linearGradient id="paint0_linear_314_394" x1="73.8532" y1="135.79" x2="204.462" y2="-54.0126" gradientUnits="userSpaceOnUse">
<stop stop-color="#30AA64"/>
<stop offset="0.01" stop-color="#2CA55F"/>
<stop offset="0.05" stop-color="#1F944F"/>
<stop offset="0.11" stop-color="#168943"/>
<stop offset="0.18" stop-color="#10823D"/>
<stop offset="0.39" stop-color="#0F803B"/>
<stop offset="0.53" stop-color="#148B43"/>
<stop offset="0.77" stop-color="#21A957"/>
<stop offset="1" stop-color="#2FCA6E"/>
</linearGradient>
<linearGradient id="paint1_linear_314_394" x1="129.454" y1="22.9733" x2="61.0965" y2="160.207" gradientUnits="userSpaceOnUse">
<stop offset="0.07" stop-color="#30AA64"/>
<stop offset="0.1" stop-color="#2B9F5B"/>
<stop offset="0.14" stop-color="#269452"/>
<stop offset="0.21" stop-color="#238D4D"/>
<stop offset="0.39" stop-color="#228B4B"/>
<stop offset="0.54" stop-color="#249651"/>
<stop offset="0.83" stop-color="#2AB462"/>
<stop offset="1" stop-color="#2FCA6E"/>
</linearGradient>
<linearGradient id="paint2_linear_314_394" x1="92.2453" y1="161.387" x2="135.624" y2="36.6291" gradientUnits="userSpaceOnUse">
<stop stop-color="#76F192"/>
<stop offset="0.03" stop-color="#5CD680"/>
<stop offset="0.06" stop-color="#47C072"/>
<stop offset="0.1" stop-color="#36AF67"/>
<stop offset="0.15" stop-color="#2AA460"/>
<stop offset="0.21" stop-color="#249D5B"/>
<stop offset="0.39" stop-color="#229B5A"/>
<stop offset="0.54" stop-color="#25A65F"/>
<stop offset="0.8" stop-color="#2DC46C"/>
<stop offset="0.85" stop-color="#2FCA6E"/>
<stop offset="0.88" stop-color="#3AD074"/>
<stop offset="0.94" stop-color="#58E183"/>
<stop offset="1" stop-color="#79F494"/>
</linearGradient>
<linearGradient id="paint3_linear_314_394" x1="36.01" y1="74.0307" x2="133.784" y2="98.4086" gradientUnits="userSpaceOnUse">
<stop stop-color="#79F494"/>
<stop offset="0.23" stop-color="#6EEE8E"/>
<stop offset="0.63" stop-color="#50DD7F"/>
<stop offset="1" stop-color="#2FCA6E"/>
</linearGradient>
<linearGradient id="paint4_linear_314_394" x1="52.5074" y1="-5.74338" x2="92.3985" y2="113.72" gradientUnits="userSpaceOnUse">
<stop stop-color="white"/>
<stop offset="0.09" stop-color="white" stop-opacity="0.96"/>
<stop offset="0.24" stop-color="white" stop-opacity="0.84"/>
<stop offset="0.44" stop-color="white" stop-opacity="0.65"/>
<stop offset="0.69" stop-color="white" stop-opacity="0.38"/>
<stop offset="0.96" stop-color="white" stop-opacity="0.04"/>
<stop offset="1" stop-color="white" stop-opacity="0"/>
</linearGradient>
</defs>
</svg>
