<svg width="54" height="54" viewBox="0 0 54 54" fill="none" xmlns="http://www.w3.org/2000/svg">
<path fill-rule="evenodd" clip-rule="evenodd" d="M35.9837 1.28565L52.733 18.0349C53.012 18.2898 53.2205 18.6122 53.3385 18.9712V19.5835C53.2807 19.8838 53.1253 20.1565 52.8964 20.3592C42.0542 31.1831 31.2239 42.0188 20.4056 52.8665C19.8811 53.3937 18.9489 53.5008 18.3888 52.9516C18.352 52.9167 18.3149 52.8819 18.2778 52.847L18.2776 52.8469L18.2772 52.8465C18.2023 52.7761 18.1271 52.7055 18.0538 52.6331L1.3869 35.9662C1.00936 35.5873 0.64142 35.207 0.688099 34.603C0.714184 34.2666 0.781454 33.9632 1.05603 33.7339C1.11762 33.6807 1.17413 33.6218 1.23074 33.5628C1.25742 33.535 1.28412 33.5072 1.31139 33.4799C12.0611 22.7329 22.8086 11.9841 33.5537 1.23348C33.8091 0.980871 34.0589 0.736496 34.4365 0.684326H35.0529C35.4097 0.80142 35.7303 1.00853 35.9837 1.28565ZM10.4226 34.1902C11.4508 33.1637 12.4789 32.1372 13.5013 31.1048C13.9969 30.6037 14.0326 29.9736 13.5782 29.5054C13.1237 29.0373 12.495 29.0455 11.9444 29.5754C11.5691 29.9368 11.2026 30.307 10.8334 30.6801L10.833 30.6805L10.8321 30.6814C10.6602 30.8551 10.4877 31.0294 10.3134 31.2037C10.079 31.4381 9.84439 31.6723 9.60976 31.9066L9.60801 31.9083C8.96105 32.5542 8.31399 33.2002 7.67062 33.8506C7.33014 34.1952 7.21071 34.6043 7.41115 35.067C7.59923 35.5008 7.93696 35.7219 8.57947 35.7383C8.75932 35.7576 9.02841 35.5832 9.26592 35.3457C9.65129 34.9603 10.037 34.5752 10.4226 34.1902ZM20.5085 25.1149C21.0206 29.0839 24.6876 32.8786 28.6333 33.5239C31.4779 33.9879 33.6594 32.188 33.6375 29.4066C33.6311 29.3212 33.6265 29.2357 33.622 29.1503V29.1502C33.6119 28.9611 33.6018 28.772 33.5716 28.5828C32.9194 24.6111 29.1577 20.9756 25.1764 20.4471C22.3455 20.0778 20.142 22.2785 20.5085 25.1149ZM45.6571 20.8673L45.6573 20.8671L45.6573 20.8671C45.9324 20.5946 46.2084 20.3212 46.4699 20.0352V20.0338C46.6221 19.882 46.7214 19.6852 46.753 19.4726C46.7847 19.2599 46.747 19.0427 46.6456 18.8532C46.4507 18.4536 46.1225 18.234 45.6063 18.234C45.4871 18.2285 45.3681 18.2479 45.2568 18.2909C45.1454 18.334 45.0443 18.3996 44.9597 18.4838C44.5989 18.844 44.2381 19.2033 43.8776 19.5624C42.7261 20.7093 41.577 21.8539 40.4374 23.0144C40.1381 23.3109 40.1052 23.7118 40.2754 24.1127C40.5994 24.8705 41.4918 25.0147 42.1288 24.3873C42.9339 23.596 43.7311 22.7963 44.5282 21.9967L44.5284 21.9965L44.5321 21.9928C44.8429 21.681 45.1537 21.3692 45.4649 21.058C45.5288 20.9944 45.5929 20.9309 45.6571 20.8673ZM52.2566 38.009C52.7289 37.836 53.1106 37.6053 53.3343 37.1495V36.6361C52.1116 33.2862 50.892 29.9423 49.6756 26.6044L41.1911 35.082C41.29 35.1122 41.3786 35.0705 41.4682 35.0283C41.5005 35.0131 41.5329 34.9979 41.5659 34.9859C42.0234 34.8188 42.4803 34.6503 42.9371 34.4819C43.6963 34.2019 44.4553 33.9221 45.2164 33.6487C45.8768 33.4112 46.4548 33.6706 46.6813 34.2761C46.8955 34.8582 46.6388 35.443 46.0058 35.6819C44.7544 36.1537 43.4976 36.6123 42.2405 37.071L42.2369 37.0723C41.6846 37.2738 41.1322 37.4754 40.5802 37.6781C40.1052 37.8525 39.6645 37.7522 39.3899 37.3541C39.164 37.0256 39.0547 37.1367 38.8728 37.3216L38.8407 37.3541C36.0583 40.1374 33.2769 42.9225 30.4963 45.7095C30.4733 45.7319 30.4468 45.7525 30.42 45.7734C30.3317 45.8423 30.2401 45.9136 30.2602 46.0569C30.3781 46.1006 30.472 46.0532 30.5618 46.0078C30.5933 45.9919 30.6242 45.9763 30.6556 45.9649C37.8541 43.306 45.0544 40.6541 52.2566 38.009ZM14.4266 51.9357C13.9805 52.0999 13.5427 52.2641 13.1095 52.4265L13.1092 52.4267C12.456 52.6717 11.8133 52.9127 11.1687 53.1438C10.323 53.4513 9.80267 53.2015 9.48828 52.3393C8.62335 49.9697 7.76163 47.5978 6.90312 45.2236C6.76583 44.8433 6.62854 44.4616 6.47752 44.0402C6.85644 44.2983 13.7744 51.1751 14.4266 51.9357ZM1.26611 29.7331C1.34252 29.9383 1.42073 30.1484 1.49944 30.366C2.30403 29.5561 3.09688 28.7592 3.88338 27.9687C4.70999 27.1378 5.52959 26.314 6.34848 25.4895C6.35615 25.4819 6.36594 25.4745 6.37613 25.4668C6.41517 25.4374 6.46011 25.4035 6.41438 25.3316C6.34625 25.2252 6.27481 25.2657 6.2084 25.3033C6.18916 25.3142 6.17035 25.3249 6.15216 25.3316C5.76026 25.4757 5.36803 25.6191 4.97575 25.7626C3.78629 26.1975 2.59642 26.6326 1.41431 27.0848C1.16679 27.169 0.961695 27.3461 0.842319 27.5787C0.722944 27.8113 0.698639 28.0812 0.774546 28.3314C0.917068 28.7956 1.08661 29.251 1.26611 29.7331Z" fill="url(#paint0_linear_314_156)"/>
<defs>
<linearGradient id="paint0_linear_314_156" x1="26.4765" y1="52.0823" x2="26.4765" y2="1.05439" gradientUnits="userSpaceOnUse">
<stop stop-color="#08E693"/>
<stop offset="1" stop-color="#396B4E"/>
</linearGradient>
</defs>
</svg>
