<svg width="83" height="84" viewBox="0 0 83 84" fill="none" xmlns="http://www.w3.org/2000/svg">
<path d="M26.9001 15.0621L25.0291 19.7302L25.2185 19.1288L27.0921 14.466L26.9001 15.0621ZM19.5099 18.3612L17.6389 23.0294L17.7008 23.6751L19.5719 19.0069L19.5099 18.3612ZM14.5183 24.7177L12.6473 29.3859L12.9723 30.049L14.8433 25.3808L14.5183 24.7177ZM12.7168 32.7952L10.8458 37.4634L11.3815 38.037L13.2525 33.3688L12.7168 32.7952ZM14.3384 41.5874L12.4674 46.2556L13.1598 46.6676L15.0308 41.9994L14.3384 41.5874ZM19.1598 50.0687L17.2937 54.7342L18.0204 54.9504L19.8914 50.2822L19.1598 50.0687ZM45.6097 64.2133L43.7436 68.8787L44.1453 68.4317L46.0114 63.7663L45.6097 64.2133ZM26.6421 57.1777L24.7711 61.8459L25.4887 61.8155L27.3597 57.1473L26.6421 57.1777ZM35.8166 62.0909L33.9456 66.7591L34.558 66.5014L36.429 61.8332L35.8166 62.0909Z" fill="url(#paint0_linear_314_382)"/>
<path d="M69.1762 37.6825L67.2634 42.0669L66.9358 42.572L68.8486 38.1876L69.1762 37.6825ZM70.9251 46.1759L69.0175 50.5576L69.5755 50.2102L71.4883 45.8258L70.9251 46.1759ZM69.395 53.6379L67.4823 58.0223L68.2142 57.8742L70.127 53.4898L69.395 53.6379ZM64.428 59.6698L62.5152 64.0541L63.3121 64.1158L65.2249 59.7315L64.428 59.6698ZM56.6303 63.5414L54.7176 67.9258L55.5128 68.1993L57.4255 63.8149L56.6303 63.5414ZM18.5231 52.9584L16.6103 57.3428L16.5631 57.942L18.4706 53.5602L18.5231 52.9584ZM46.9468 64.7922L45.0392 69.174L45.7076 69.6205L47.6152 65.2387L46.9468 64.7922ZM26.6707 59.1598L24.758 63.5442L24.9899 64.1677L26.9027 59.7833L26.6707 59.1598ZM36.5419 63.2715L34.6291 67.6559L35.1147 68.2273L37.0275 63.8429L36.5419 63.2715Z" fill="url(#paint1_linear_314_382)"/>
<path d="M70.0762 55.6653L68.4014 60.1592L68.3353 60.3426L70.0101 55.8487L70.0762 55.6653Z" fill="#947272"/>
<path d="M12.7401 34.5095L10.8849 39.0973C10.8648 36.714 11.3066 34.3604 12.1847 32.1727L14.04 27.5848C13.8235 28.1181 13.6381 28.661 13.4794 29.2295C12.9799 30.9371 12.7308 32.7162 12.7401 34.5095ZM68.6964 54.4298C68.5471 54.6922 68.3873 54.947 68.2247 55.1966L68.093 55.3958C67.8889 55.6882 67.6848 55.9807 67.4624 56.2631L67.3002 56.4657C67.1309 56.6789 66.9588 56.8869 66.7789 57.0925L66.5454 57.3543C66.3799 57.5387 66.2066 57.7206 66.0306 57.8973L65.8008 58.1303C65.5512 58.3742 65.3037 58.6101 65.0407 58.8413L63.1855 63.4291C63.4457 63.1928 63.6981 62.9541 63.9478 62.7103L64.0376 62.6611L64.1887 62.498C64.3647 62.3212 64.538 62.1393 64.7035 61.9549L64.8352 61.8158L64.9371 61.6931C65.1169 61.4875 65.289 61.2795 65.4583 61.0663L65.5845 60.9169L65.6205 60.8638C65.8429 60.5813 66.047 60.2889 66.2512 59.9964L66.301 59.9691L66.3967 59.823C66.5593 59.5734 66.7163 59.3134 66.8684 59.0562L66.9641 58.9101L67.0298 58.7805C67.2178 58.4501 67.3969 58.1112 67.5671 57.7637L69.4251 53.181C69.2582 53.5266 69.0791 53.8655 68.8878 54.1977L68.6964 54.4298ZM35.0967 67.2141L36.952 62.6262L36.0469 62.3133L35.5302 62.1218C35.3382 62.0532 35.1434 61.9795 34.9536 61.903L34.4442 61.7009L33.9863 61.5106C33.453 61.2881 32.9268 61.055 32.4051 60.8061L32.147 60.6868C31.7346 60.485 31.3271 60.2804 30.9219 60.0679C30.8176 60.0182 30.7104 59.9632 30.6083 59.9055C30.1714 59.6703 29.7396 59.4323 29.3099 59.1864C28.9979 59.0031 28.6909 58.817 28.3689 58.6392L26.5137 63.227C26.8024 63.4031 27.0911 63.5791 27.3847 63.7525C27.4041 63.7603 27.4225 63.7704 27.4397 63.7825C27.8694 64.0284 28.3013 64.2664 28.7381 64.5016L28.8508 64.5669L29.0518 64.664C29.457 64.8765 29.8644 65.0811 30.2768 65.2829C30.3402 65.31 30.4021 65.3408 30.4622 65.3752L30.5349 65.4022C31.0566 65.6511 31.5828 65.8842 32.1161 66.1066L32.2699 66.1761C32.3714 66.2208 32.4724 66.2523 32.574 66.2969L33.0835 66.4991C33.2733 66.5756 33.468 66.6493 33.6601 66.7179L34.1767 66.9094L34.4103 66.9953L35.0967 67.2141ZM14.5377 43.0459L14.287 42.401C14.1104 41.9294 13.9437 41.4524 13.7948 40.9724L13.7256 40.7362C13.5705 40.2328 13.4332 39.7263 13.3136 39.2168C13.0224 37.963 12.8429 36.6873 12.7772 35.4052L10.922 39.9931C10.9877 41.2751 11.1672 42.5509 11.4584 43.8047C11.578 44.3142 11.7153 44.8206 11.8704 45.3241L11.9396 45.5603C12.0885 46.0403 12.2552 46.5173 12.4318 46.9888L12.4958 47.1076L12.6975 47.6255L14.5377 43.0459ZM63.9686 59.7166L63.3676 60.1597L63.063 60.3736L62.3977 60.8052L62.1185 60.9583C61.7861 61.1405 61.4537 61.3228 61.1212 61.505L60.9617 61.5925C60.6725 61.7511 60.3783 61.9124 60.0646 62.0375L59.7554 62.207C59.4433 62.347 59.1274 62.48 58.8078 62.6062L58.5834 62.7292C58.2421 62.8629 57.8951 62.9862 57.5404 63.1071L55.6852 67.695C56.0399 67.5741 56.3868 67.4508 56.7282 67.3171L56.793 67.2815L56.9526 67.1941L57.9002 66.7949L58.0648 66.7047L58.2094 66.6254C58.5036 66.4641 58.8144 66.3338 59.1064 66.1804L59.266 66.0929C59.6001 65.9097 59.9292 65.7293 60.2633 65.5461L60.343 65.5024C60.4079 65.4668 60.4727 65.4313 60.5425 65.393L61.2078 64.9614L61.3624 64.8767L61.5319 64.7837L62.1328 64.3406L62.3233 64.2027L62.5083 64.0545L64.3635 59.4666C64.2062 59.5462 64.0799 59.6355 63.9514 59.7327L63.9686 59.7166ZM19.0592 50.5235C18.7702 50.1671 18.4861 49.808 18.2121 49.4433C18.1815 49.3866 18.1509 49.3298 18.1203 49.273C17.8623 48.9263 17.6172 48.5793 17.3742 48.2243L17.1829 47.9414C16.8982 47.509 16.6234 47.0712 16.3615 46.6331C16.3225 46.5609 16.2863 46.4938 16.2474 46.4215C15.9692 45.9054 15.6687 45.3479 15.3822 44.8163C15.2319 44.5376 15.0789 44.2537 14.9686 43.9531L13.1134 48.541C13.2553 48.8042 13.3616 49.0735 13.5047 49.3629L13.5269 49.4042C13.8052 49.9203 14.1028 50.4726 14.3922 51.0094C14.4178 51.051 14.4411 51.0941 14.4617 51.1384C14.4617 51.1384 14.4923 51.1952 14.5062 51.221C14.7483 51.67 15.038 52.0996 15.3227 52.532C15.3449 52.5733 15.3672 52.6146 15.3867 52.6507C15.4062 52.6868 15.4507 52.7694 15.4841 52.8314C15.727 53.1863 15.9722 53.5333 16.2302 53.88C16.2512 53.9242 16.2744 53.9672 16.2997 54.009C16.2997 54.009 16.3136 54.0348 16.322 54.0503C16.596 54.415 16.8801 54.7741 17.1691 55.1305C17.1861 55.1679 17.2057 55.2041 17.2275 55.2389C17.392 55.4363 17.5565 55.6336 17.7288 55.8334L19.579 51.2482C19.42 51.0011 19.231 50.7704 19.042 50.5396L19.0592 50.5235ZM55.6031 63.6477L55.0698 63.7729L54.6069 63.8729L54.0625 63.9775L53.5841 64.0726L53.4749 64.0857C53.1073 64.1468 52.7319 64.2055 52.356 64.2511L51.9624 64.2997L51.0646 64.384L50.6399 64.423L49.8042 64.4666L49.4066 64.4839C48.9935 64.4965 48.5776 64.5038 48.1312 64.5146L46.2809 69.0997C46.7024 69.1026 47.1183 69.0953 47.5315 69.0827L47.9291 69.0654L48.7647 69.0218L48.9505 69.0069L49.1895 68.9828L50.0922 68.8958L50.4809 68.8499C50.8568 68.8043 51.2321 68.7456 51.5997 68.6845L51.6962 68.6717L52.1696 68.5793L52.714 68.4748L53.1741 68.3696L53.6875 68.2553C54.0234 68.1715 54.3565 68.0824 54.6841 67.9831L56.5393 63.3952C56.255 63.4909 55.9219 63.5799 55.5859 63.6638L55.6031 63.6477ZM26.5688 57.4328C26.1945 57.1699 25.8253 56.9043 25.4831 56.6171C25.4121 56.5692 25.351 56.5157 25.2849 56.465C24.9891 56.2438 24.7009 56.0207 24.4202 55.7957L24.0731 55.5112C23.8399 55.3181 23.6143 55.1275 23.3861 54.9317C23.2716 54.8272 23.155 54.7307 23.0406 54.6263C22.804 54.415 22.5779 54.2113 22.3435 53.9921C22.2529 53.908 22.1574 53.8266 22.069 53.7346C21.7518 53.4338 21.4396 53.1302 21.1374 52.8212C20.8351 52.5121 20.6262 52.2923 20.3768 52.0212L18.5265 56.6063C18.7655 56.8698 19.0094 57.1306 19.2633 57.3859C19.5655 57.695 19.8777 57.9986 20.1949 58.2994C20.2088 58.3252 20.2227 58.3511 20.2366 58.3769C20.2506 58.4027 20.3827 58.5041 20.4494 58.5678C20.681 58.7818 20.9071 58.9855 21.1465 59.202L21.2904 59.3371C21.3593 59.3929 21.4281 59.4488 21.492 59.5074C21.7203 59.7032 21.9597 59.9197 22.1791 60.0869C22.2557 60.1452 22.3224 60.209 22.399 60.2673C22.4756 60.3255 22.4862 60.3331 22.5262 60.3714C22.8101 60.5946 23.0984 60.8177 23.3908 61.0408L23.5525 61.1728L23.5691 61.2038C23.9312 61.48 24.3005 61.7457 24.652 62.0143C24.6687 62.0453 24.7125 62.0547 24.7364 62.075C24.9946 62.2544 25.2639 62.4545 25.5104 62.6002L27.3656 58.0123C27.118 57.8405 26.8359 57.6408 26.5516 57.4489L26.5688 57.4328ZM45.2254 64.349C45.1384 64.3433 45.0591 64.3399 44.9742 64.3263C44.3811 64.2726 43.7931 64.2004 43.2102 64.1098L42.8863 64.0601C42.3049 63.9643 41.7257 63.8605 41.151 63.741L40.8647 63.6773C40.2694 63.5556 39.6758 63.413 39.0893 63.2598C38.7403 63.1636 38.3836 63.065 38.0368 62.9609L36.1815 67.5488C36.5206 67.6505 36.8618 67.7442 37.203 67.838C37.7923 67.9964 38.3831 68.1338 38.9812 68.2606L39.2675 68.3243C39.8422 68.4438 40.4214 68.5476 41.0028 68.6434L41.3239 68.688C41.9103 68.7811 42.4983 68.8533 43.0907 68.9096C43.1755 68.9233 43.2598 68.9239 43.3419 68.9323C43.9626 68.9933 44.5877 69.0384 45.2144 69.0626L47.0646 64.4774C46.454 64.4712 45.8289 64.426 45.2083 64.3651L45.2254 64.349Z" fill="url(#paint2_linear_314_382)"/>
<path d="M14.0906 39.5124C13.7964 38.2643 13.6144 36.9941 13.5467 35.7175L14.0891 35.3548L13.5254 34.8094C13.4999 32.366 13.9677 29.9539 14.8999 27.7216L15.5957 27.5684L15.2483 26.9316C16.3116 24.7436 17.7966 22.8005 19.6175 21.2148L20.3825 21.2837L20.3075 20.6582C22.3525 19.0498 24.6625 17.816 27.1367 17.0107L27.8961 17.2959L28.0848 16.7131C30.8337 15.9301 33.6865 15.5487 36.5582 15.5802L37.1952 16.0456L37.606 15.6081C40.6798 15.7245 43.7356 16.228 46.7031 17.1069L47.1639 17.7018L47.7958 17.4435C50.8038 18.4194 53.6955 19.7489 56.4112 21.4045L56.6232 22.0552L57.36 22.0129C59.9669 23.6865 62.3636 25.6806 64.4939 27.9487L64.4407 28.5775L65.196 28.7717C67.1036 30.9369 68.6954 33.3659 69.9212 35.9823L69.6043 36.5084L70.3224 36.8963C70.8381 38.1335 71.252 39.41 71.5597 40.7125C71.8555 41.9603 72.0375 43.2307 72.1036 44.5075L71.5611 44.8702L72.1298 45.4128C72.1519 47.8558 71.6843 50.2672 70.7553 52.5007L70.0518 52.6514L70.4019 53.2933C69.341 55.485 67.8537 57.4297 66.0277 59.0129L65.2628 58.944L65.3377 59.5695C63.2928 61.1779 60.9827 62.4117 58.5086 63.217L57.7463 62.9266L57.5655 63.5118C54.8166 64.2948 51.9637 64.6763 49.0921 64.6448L48.4523 64.1743L48.0443 64.6169C44.9708 64.4964 41.9155 63.993 38.9472 63.118L38.4835 62.5181L37.8544 62.7815C34.848 61.8046 31.9579 60.4742 29.2441 58.8177L29.0242 58.1647L28.2825 58.2096C25.6774 56.5367 23.2817 54.5443 21.1514 52.279L21.2045 51.6502L20.4242 51.4697C18.5204 49.3016 16.9305 46.872 15.704 44.2563L16.0181 43.725L15.2951 43.34C14.7895 42.0982 14.3865 40.8179 14.0906 39.5124Z" fill="url(#paint3_linear_314_382)"/>
<path style="mix-blend-mode:screen" opacity="0.6" d="M37.862 62.7814L38.4911 62.518L38.9546 63.118C41.9228 63.9931 44.978 64.4965 48.0514 64.6171L48.4593 64.1745L49.0991 64.645C51.9706 64.6766 54.8233 64.2952 57.5721 63.5122L57.753 62.927L58.5152 63.2173C60.9892 62.4121 63.2992 61.1783 65.3441 59.5698L65.2691 58.9442L66.034 59.0132C67.8599 57.4299 69.3471 55.4852 70.4081 53.2934L70.0608 52.6566L70.7643 52.5059C71.6933 50.2724 72.1609 47.8608 72.1388 45.4177L71.5702 44.8751L72.1126 44.5123C72.0466 43.2355 71.8645 41.9651 71.5688 40.7172C71.2612 39.4146 70.8473 38.138 70.3316 36.9007L69.6136 36.5129L69.9305 35.9867C68.7074 33.365 67.1171 30.9304 65.21 28.76L64.4548 28.5658L64.5079 27.937C62.3761 25.6706 59.9798 23.6765 57.3744 22.0008L56.6327 22.0457L56.4207 21.395C53.7051 19.7393 50.8135 18.4098 47.8058 17.4337L47.1739 17.692L46.7131 17.0971C43.7458 16.218 40.6901 15.7145 37.6164 15.598L37.2056 16.0355L36.5687 15.5701C33.6972 15.5385 30.8444 15.9199 28.0956 16.7029L27.907 17.2858L27.1476 17.0005C24.6735 17.8058 22.3636 19.0396 20.3187 20.6481L20.3936 21.2736L19.6287 21.2046C17.8078 22.7905 16.3229 24.7336 15.2597 26.9217L15.607 27.5585L14.9113 27.7116C13.9791 29.9441 13.5113 32.3563 13.5367 34.7998L14.1004 35.3452L13.558 35.7079C13.6256 36.9846 13.8076 38.2549 14.1017 39.503C14.4083 40.8039 14.8213 42.0788 15.3362 43.3144L16.0592 43.6995L15.7451 44.2308C16.9648 46.8511 18.5488 49.2864 20.4477 51.4606L21.228 51.6411L21.1749 52.27C23.3051 54.5355 25.7006 56.5279 28.3056 58.201L29.0473 58.1561L29.2671 58.8092C31.9757 60.4675 34.8605 61.8007 37.862 62.7814ZM29.1426 57.9974L28.3318 58.0468C25.7849 56.3918 23.4414 54.43 21.354 52.2055L21.4092 51.5089L20.5486 51.3122C18.6861 49.1915 17.1284 46.8164 15.9234 44.2601L16.278 43.66L15.4573 43.215C14.959 42.0047 14.5569 40.7577 14.2548 39.4861C13.9678 38.2692 13.784 37.0318 13.7052 35.7875L14.3449 35.365L13.6796 34.7285C13.6729 32.8566 13.9536 31.0013 14.5117 29.2293C14.6545 28.7648 14.8229 28.2997 15.0125 27.8497L15.8379 27.6724L15.4262 26.9174C16.4671 24.8013 17.9095 22.9206 19.6727 21.3806L20.5691 21.4644L20.4704 20.7119C22.4705 19.1532 24.7225 17.9532 27.1319 17.1624L27.9906 17.4867L28.2003 16.8591C30.896 16.0986 33.6913 15.7258 36.5052 15.7514L37.2164 16.2696L37.6888 15.7784C40.7059 15.8994 43.7051 16.3928 46.62 17.2479L47.1244 17.8989L47.8141 17.6157C50.7781 18.5773 53.6287 19.8842 56.308 21.5099L56.5458 22.2198L57.3543 22.1783C59.9038 23.8287 62.2498 25.787 64.3394 28.009L64.2792 28.7083L65.1448 28.9022C67.0048 31.0249 68.5623 33.3995 69.77 35.9544L69.4104 36.5572L70.2283 36.9971C70.7312 38.2078 71.1344 39.4568 71.4335 40.7311C71.7177 41.9394 71.897 43.1685 71.9691 44.4041L71.3372 44.829L71.9975 45.4682C72.0065 47.339 71.7274 49.1934 71.1705 50.9646C71.0227 51.4318 70.8543 51.897 70.6697 52.3443L69.8343 52.527L70.246 53.282C69.2103 55.3934 67.7705 57.2685 66.0089 58.8004L65.1175 58.7138L65.219 59.4714C63.2206 61.0292 60.9702 62.2283 58.5625 63.0183L57.696 62.6915L57.4881 63.3581C54.7931 64.1137 52 64.4855 49.1882 64.4631L48.4742 63.9398L48.0046 64.436C44.9846 64.3151 41.9822 63.8235 39.0634 62.972L38.5533 62.3107L37.8664 62.599C34.9121 61.6331 32.0705 60.3261 29.3982 58.7043L29.1426 57.9974Z" fill="url(#paint4_linear_314_382)"/>
<g style="mix-blend-mode:multiply" opacity="0.5">
<path d="M37.2422 25.2091L38.5018 30.7165C33.2569 31.614 30.6088 35.3566 31.7631 40.529C32.9175 45.7015 37.2849 49.222 42.8302 49.8519L44.017 55.0858L48.6428 55.0002L47.4497 49.7295C50.5103 49.162 52.6395 47.697 53.6044 45.5424L48.7731 43.0914C48.0221 44.5972 46.4642 45.3804 44.2592 45.4258C42.8082 45.4782 41.393 45.009 40.245 44.095C39.097 43.181 38.2841 41.8762 37.9394 40.394C37.2513 37.358 38.9152 35.255 41.9321 35.1932L42.0697 35.1846C43.9933 35.1423 45.8554 35.8222 47.3249 37.1034L50.9008 34.3618C48.7627 32.2959 46.0497 31.0076 43.1471 30.6799L41.893 25.1218L37.2422 25.2091Z" fill="#03A798"/>
</g>
<g style="mix-blend-mode:multiply" opacity="0.5">
<path d="M47.5439 60.1691C34.5845 59.9119 21.9233 50.6887 19.3291 39.6228C16.7348 28.5569 25.177 19.7707 38.1363 20.0279C51.0956 20.2851 63.7597 29.5134 66.3511 40.5741C68.9425 51.6349 60.506 60.4314 47.5439 60.1691ZM38.4981 21.5365C26.5012 21.2937 18.6881 29.4234 21.1025 39.6478C23.517 49.8722 35.2281 58.4011 47.2049 58.6547C59.1817 58.9084 67.0049 50.7732 64.6004 40.5434C62.196 30.3135 50.4749 21.7901 38.5031 21.5337" fill="#03A798"/>
</g>
<defs>
<linearGradient id="paint0_linear_314_382" x1="3.55655" y1="16.8439" x2="87.8806" y2="85.135" gradientUnits="userSpaceOnUse">
<stop stop-color="#30AA64"/>
<stop offset="0.01" stop-color="#2CA55F"/>
<stop offset="0.05" stop-color="#1F944F"/>
<stop offset="0.11" stop-color="#168943"/>
<stop offset="0.18" stop-color="#10823D"/>
<stop offset="0.39" stop-color="#0F803B"/>
<stop offset="0.53" stop-color="#148B43"/>
<stop offset="0.77" stop-color="#21A957"/>
<stop offset="1" stop-color="#2FCA6E"/>
</linearGradient>
<linearGradient id="paint1_linear_314_382" x1="71.0236" y1="62.6254" x2="8.24723" y2="28.2378" gradientUnits="userSpaceOnUse">
<stop offset="0.07" stop-color="#30AA64"/>
<stop offset="0.1" stop-color="#2B9F5B"/>
<stop offset="0.14" stop-color="#269452"/>
<stop offset="0.21" stop-color="#238D4D"/>
<stop offset="0.39" stop-color="#228B4B"/>
<stop offset="0.54" stop-color="#249651"/>
<stop offset="0.83" stop-color="#2AB462"/>
<stop offset="1" stop-color="#2FCA6E"/>
</linearGradient>
<linearGradient id="paint2_linear_314_382" x1="8.60749" y1="40.4817" x2="65.2445" y2="63.3089" gradientUnits="userSpaceOnUse">
<stop stop-color="#76F192"/>
<stop offset="0.03" stop-color="#5CD680"/>
<stop offset="0.06" stop-color="#47C072"/>
<stop offset="0.1" stop-color="#36AF67"/>
<stop offset="0.15" stop-color="#2AA460"/>
<stop offset="0.21" stop-color="#249D5B"/>
<stop offset="0.39" stop-color="#229B5A"/>
<stop offset="0.54" stop-color="#25A65F"/>
<stop offset="0.8" stop-color="#2DC46C"/>
<stop offset="0.85" stop-color="#2FCA6E"/>
<stop offset="0.88" stop-color="#3AD074"/>
<stop offset="0.94" stop-color="#58E183"/>
<stop offset="1" stop-color="#79F494"/>
</linearGradient>
<linearGradient id="paint3_linear_314_382" x1="49.7948" y1="18.0865" x2="34.7219" y2="61.6946" gradientUnits="userSpaceOnUse">
<stop stop-color="#79F494"/>
<stop offset="0.23" stop-color="#6EEE8E"/>
<stop offset="0.63" stop-color="#50DD7F"/>
<stop offset="1" stop-color="#2FCA6E"/>
</linearGradient>
<linearGradient id="paint4_linear_314_382" x1="85.7851" y1="28.9317" x2="30.8717" y2="43.9065" gradientUnits="userSpaceOnUse">
<stop stop-color="white"/>
<stop offset="0.09" stop-color="white" stop-opacity="0.96"/>
<stop offset="0.24" stop-color="white" stop-opacity="0.84"/>
<stop offset="0.44" stop-color="white" stop-opacity="0.65"/>
<stop offset="0.69" stop-color="white" stop-opacity="0.38"/>
<stop offset="0.96" stop-color="white" stop-opacity="0.04"/>
<stop offset="1" stop-color="white" stop-opacity="0"/>
</linearGradient>
</defs>
</svg>
