<svg width="176" height="180" viewBox="0 0 176 180" fill="none" xmlns="http://www.w3.org/2000/svg">
<path d="M56.0086 31.1704L51.979 41.2243L52.387 39.9291L56.4222 29.8867L56.0086 31.1704ZM40.0922 38.2759L36.0626 48.3298L36.1961 49.7205L40.2257 39.6666L40.0922 38.2759ZM29.3418 51.9659L25.3122 62.0198L26.0122 63.448L30.0418 53.3941L29.3418 51.9659ZM25.4619 69.3625L21.4323 79.4164L22.586 80.6519L26.6156 70.598L25.4619 69.3625ZM28.9544 88.2984L24.9247 98.3523L26.4159 99.2397L30.4455 89.1857L28.9544 88.2984ZM39.3383 106.565L35.3192 116.613L36.8843 117.078L40.9139 107.025L39.3383 106.565ZM96.3038 137.028L92.2847 147.076L93.1498 146.113L97.1689 136.065L96.3038 137.028ZM55.4529 121.875L51.4233 131.929L52.9688 131.864L56.9984 121.81L55.4529 121.875ZM75.2123 132.457L71.1827 142.511L72.5016 141.956L76.5312 131.902L75.2123 132.457Z" fill="url(#paint0_linear_314_370)"/>
<path d="M147.06 79.8883L142.94 89.331L142.235 90.4189L146.354 80.9762L147.06 79.8883ZM150.826 98.1806L146.718 107.618L147.92 106.869L152.039 97.4267L150.826 98.1806ZM147.531 114.252L143.411 123.694L144.988 123.375L149.107 113.933L147.531 114.252ZM136.833 127.243L132.714 136.685L134.43 136.818L138.55 127.375L136.833 127.243ZM120.04 135.581L115.92 145.024L117.633 145.613L121.752 136.17L120.04 135.581ZM37.9674 112.788L33.8478 122.231L33.7461 123.521L37.8544 114.084L37.9674 112.788ZM99.1839 138.275L95.0755 147.712L96.5151 148.673L100.623 139.237L99.1839 138.275ZM55.5151 126.144L51.3956 135.587L51.8951 136.93L56.0147 127.487L55.5151 126.144ZM76.7748 135L72.6552 144.442L73.7011 145.673L77.8206 136.23L76.7748 135Z" fill="url(#paint1_linear_314_370)"/>
<path d="M148.997 118.618L145.39 128.297L145.248 128.692L148.855 119.013L148.997 118.618Z" fill="#947272"/>
<path d="M25.5121 73.0542L21.5165 82.9352C21.4732 77.8021 22.4247 72.7332 24.316 68.0215L28.3116 58.1406C27.8454 59.289 27.4462 60.4584 27.1044 61.6827C26.0285 65.3604 25.492 69.1921 25.5121 73.0542ZM146.026 115.957C145.704 116.522 145.36 117.071 145.01 117.608L144.726 118.037C144.287 118.667 143.847 119.297 143.368 119.905L143.019 120.342C142.654 120.801 142.284 121.249 141.896 121.692L141.393 122.255C141.037 122.653 140.664 123.044 140.284 123.425L139.79 123.927C139.252 124.452 138.719 124.96 138.153 125.458L134.157 135.339C134.717 134.83 135.261 134.316 135.799 133.791L135.992 133.685L136.318 133.333C136.697 132.953 137.07 132.561 137.426 132.164L137.71 131.864L137.929 131.6C138.317 131.157 138.687 130.709 139.052 130.25L139.324 129.928L139.401 129.814C139.88 129.206 140.32 128.576 140.76 127.946L140.867 127.887L141.073 127.572C141.423 127.035 141.761 126.475 142.089 125.921L142.295 125.606L142.437 125.327C142.841 124.615 143.227 123.885 143.594 123.137L147.595 113.267C147.236 114.012 146.85 114.742 146.438 115.457L146.026 115.957ZM73.6619 143.491L77.6575 133.61L75.7082 132.936L74.5955 132.523C74.182 132.376 73.7624 132.217 73.3537 132.052L72.2564 131.617L71.2703 131.207C70.1217 130.728 68.9885 130.226 67.8648 129.69L67.3089 129.433C66.4207 128.998 65.5432 128.557 64.6705 128.1C64.4458 127.993 64.215 127.874 63.9951 127.75C63.0542 127.243 62.124 126.731 61.1986 126.201C60.5267 125.806 59.8655 125.406 59.172 125.023L55.1764 134.904C55.7982 135.283 56.4199 135.662 57.0524 136.035C57.0941 136.052 57.1338 136.074 57.1708 136.1C58.0962 136.63 59.0263 137.142 59.9672 137.649L60.2099 137.789L60.6427 137.998C61.5154 138.456 62.3929 138.897 63.2811 139.331C63.4177 139.39 63.551 139.456 63.6804 139.53L63.837 139.588C64.9607 140.124 66.0938 140.626 67.2425 141.105L67.5736 141.255C67.7924 141.351 68.0099 141.419 68.2286 141.515L69.3258 141.951C69.7346 142.115 70.1541 142.274 70.5677 142.422L71.6804 142.834L72.1835 143.019L73.6619 143.491ZM29.3836 91.4392L28.8437 90.0503C28.4633 89.0347 28.1043 88.0074 27.7836 86.9735L27.6346 86.4648C27.3006 85.3806 27.0048 84.2898 26.7473 83.1925C26.1202 80.4922 25.7335 77.7445 25.592 74.9834L21.5964 84.8644C21.7379 87.6255 22.1245 90.3732 22.7517 93.0735C23.0092 94.1708 23.305 95.2615 23.6389 96.3457L23.788 96.8545C24.1087 97.8884 24.4677 98.9157 24.8481 99.9312L24.9859 100.187L25.4203 101.302L29.3836 91.4392ZM135.844 127.343L134.549 128.298L133.893 128.758L132.46 129.688L131.859 130.017C131.143 130.41 130.427 130.802 129.711 131.195L129.368 131.383C128.745 131.725 128.111 132.072 127.435 132.342L126.77 132.707C126.097 133.008 125.417 133.295 124.729 133.567L124.245 133.831C123.51 134.119 122.763 134.385 121.999 134.645L118.003 144.526C118.767 144.266 119.515 144 120.25 143.712L120.389 143.636L120.733 143.447L122.774 142.588L123.128 142.393L123.44 142.223C124.073 141.875 124.743 141.595 125.372 141.264L125.716 141.076C126.435 140.681 127.144 140.293 127.863 139.898L128.035 139.804C128.175 139.728 128.314 139.651 128.465 139.569L129.898 138.639L130.23 138.456L130.596 138.256L131.89 137.302L132.3 137.005L132.699 136.686L136.694 126.805C136.355 126.976 136.083 127.168 135.807 127.378L135.844 127.343ZM39.1216 107.544C38.4991 106.776 37.8874 106.003 37.2972 105.217C37.2313 105.095 37.1653 104.973 37.0994 104.851C36.5439 104.104 36.0158 103.357 35.4925 102.592L35.0806 101.983C34.4674 101.052 33.8757 100.109 33.3115 99.1651C33.2276 99.0095 33.1497 98.8649 33.0658 98.7093C32.4666 97.5977 31.8195 96.3971 31.2023 95.2521C30.8788 94.6519 30.5492 94.0405 30.3116 93.3931L26.316 103.274C26.6216 103.841 26.8507 104.421 27.1588 105.044L27.2067 105.133C27.8059 106.245 28.447 107.434 29.0702 108.59C29.1254 108.68 29.1754 108.773 29.2199 108.868C29.2199 108.868 29.2859 108.99 29.3158 109.046C29.8371 110.013 30.461 110.938 31.0742 111.87C31.1222 111.958 31.1701 112.047 31.212 112.125C31.254 112.203 31.3499 112.381 31.4218 112.514C31.9451 113.279 32.4731 114.026 33.0287 114.773C33.0739 114.868 33.1239 114.961 33.1785 115.051C33.1785 115.051 33.2084 115.106 33.2264 115.14C33.8166 115.925 34.4283 116.698 35.0508 117.466C35.0876 117.547 35.1296 117.625 35.1766 117.7C35.5309 118.125 35.8852 118.55 36.2562 118.98L40.2411 109.105C39.8986 108.572 39.4916 108.076 39.0846 107.579L39.1216 107.544ZM117.827 135.81L116.678 136.079L115.681 136.295L114.509 136.52L113.478 136.725L113.243 136.753C112.451 136.885 111.643 137.011 110.833 137.109L109.986 137.214L108.052 137.395L107.137 137.479L105.338 137.573L104.481 137.611C103.591 137.638 102.696 137.654 101.734 137.677L97.7494 147.552C98.6572 147.558 99.5529 147.542 100.443 147.515L101.299 147.478L103.099 147.384L103.499 147.352L104.014 147.3L105.958 147.113L106.795 147.014C107.604 146.915 108.413 146.789 109.205 146.657L109.412 146.63L110.432 146.431L111.604 146.206L112.595 145.979L113.701 145.733C114.424 145.553 115.142 145.361 115.847 145.147L119.843 135.266C119.231 135.472 118.513 135.664 117.79 135.844L117.827 135.81ZM55.2951 122.425C54.4891 121.858 53.6938 121.286 52.9569 120.668C52.8039 120.564 52.6723 120.449 52.53 120.34C51.8929 119.864 51.2722 119.383 50.6677 118.899L49.9201 118.286C49.4178 117.87 48.9321 117.46 48.4404 117.038C48.194 116.813 47.9428 116.605 47.6963 116.38C47.1867 115.925 46.6998 115.486 46.195 115.014C45.9999 114.833 45.7942 114.658 45.604 114.46C44.9208 113.812 44.2484 113.158 43.5974 112.492C42.9465 111.827 42.4966 111.353 41.9592 110.769L37.9744 120.644C38.489 121.212 39.0143 121.774 39.5611 122.324C40.212 122.989 40.8845 123.643 41.5676 124.291C41.5976 124.347 41.6275 124.402 41.6575 124.458C41.6874 124.513 41.9721 124.732 42.1157 124.869C42.6146 125.33 43.1015 125.769 43.6171 126.235L43.927 126.526C44.0753 126.646 44.2236 126.766 44.3612 126.893C44.8528 127.314 45.3684 127.78 45.8409 128.141C46.0059 128.266 46.1495 128.404 46.3146 128.529C46.4796 128.655 46.5023 128.671 46.5884 128.753C47.2 129.234 47.8208 129.715 48.4507 130.195L48.7988 130.479L48.8347 130.546C49.6145 131.141 50.4098 131.713 51.1669 132.292C51.2029 132.358 51.2972 132.379 51.3487 132.423C51.9048 132.809 52.4848 133.24 53.0157 133.554L57.0113 123.673C56.4779 123.303 55.8704 122.872 55.2582 122.459L55.2951 122.425ZM95.4762 137.32C95.2886 137.308 95.1178 137.301 94.935 137.271C93.6576 137.155 92.3913 137 91.136 136.805L90.4383 136.698C89.1862 136.491 87.9388 136.268 86.701 136.011L86.0844 135.873C84.8024 135.611 83.5238 135.304 82.2607 134.974C81.5091 134.767 80.7407 134.555 79.9938 134.331L75.9982 144.211C76.7284 144.43 77.4633 144.632 78.1982 144.834C79.4673 145.175 80.7398 145.471 82.0279 145.744L82.6444 145.882C83.8823 146.139 85.1296 146.363 86.3817 146.569L87.0735 146.665C88.3363 146.865 89.6026 147.021 90.8785 147.142C91.0613 147.172 91.2428 147.173 91.4196 147.191C92.7564 147.322 94.1026 147.42 95.4524 147.472L99.4373 137.597C98.1222 137.583 96.776 137.486 95.4392 137.355L95.4762 137.32Z" fill="url(#paint2_linear_314_370)"/>
<path d="M28.4209 83.8295C27.7874 81.1415 27.3953 78.4058 27.2495 75.6563L28.4178 74.8751L27.2038 73.7006C27.1489 68.4382 28.1563 63.2432 30.1641 58.4354L31.6625 58.1055L30.9144 56.7341C33.2043 52.0218 36.4026 47.8369 40.3244 44.4216L41.9718 44.5701L41.8104 43.2229C46.2147 39.7588 51.1898 37.1015 56.5184 35.3673L58.1542 35.9815L58.5605 34.7264C64.4808 33.04 70.625 32.2185 76.8098 32.2864L78.1816 33.2886L79.0663 32.3465C85.6865 32.5971 92.2679 33.6814 98.659 35.5745L99.6515 36.8556L101.012 36.2994C107.491 38.4013 113.719 41.2646 119.567 44.8302L120.024 46.2316L121.611 46.1405C127.225 49.7449 132.387 54.0398 136.975 58.9246L136.861 60.2789L138.487 60.6971C142.596 65.3602 146.024 70.5918 148.664 76.2266L147.982 77.3598L149.528 78.195C150.639 80.8596 151.53 83.6089 152.193 86.4142C152.83 89.1016 153.222 91.8376 153.364 94.5874L152.196 95.3686L153.421 96.5372C153.468 101.799 152.461 106.992 150.461 111.802L148.945 112.127L149.699 113.51C147.414 118.23 144.211 122.418 140.279 125.828L138.631 125.679L138.793 127.027C134.388 130.491 129.413 133.148 124.085 134.882L122.443 134.257L122.053 135.517C116.133 137.204 109.989 138.025 103.804 137.957L102.426 136.944L101.548 137.897C94.9281 137.638 88.3477 136.554 81.9549 134.669L80.9563 133.377L79.6015 133.944C73.1265 131.84 66.9021 128.975 61.0572 125.408L60.5837 124.001L58.9863 124.098C53.3756 120.495 48.2161 116.204 43.6278 111.325L43.7423 109.971L42.0617 109.582C37.9614 104.913 34.5372 99.6799 31.8958 94.0466L32.5723 92.9023L31.0151 92.0729C29.9262 89.3986 29.0584 86.6411 28.4209 83.8295Z" fill="url(#paint3_linear_314_370)"/>
<path style="mix-blend-mode:screen" opacity="0.6" d="M79.6179 133.944L80.9727 133.377L81.9712 134.669C88.3637 136.554 94.9437 137.638 101.563 137.898L102.442 136.945L103.819 137.958C110.004 138.026 116.148 137.204 122.068 135.518L122.457 134.258L124.099 134.883C129.427 133.149 134.402 130.492 138.806 127.027L138.645 125.68L140.292 125.829C144.225 122.419 147.428 118.23 149.713 113.51L148.965 112.138L150.48 111.814C152.481 107.003 153.488 101.81 153.44 96.5478L152.216 95.3791L153.384 94.5979C153.242 91.848 152.85 89.1119 152.213 86.4243C151.55 83.6189 150.659 80.8694 149.548 78.2047L148.002 77.3694L148.684 76.2362C146.05 70.5898 142.625 65.3464 138.518 60.6719L136.891 60.2536L137.006 58.8993C132.414 54.0182 127.253 49.7234 121.642 46.1144L120.045 46.2113L119.588 44.8099C113.739 41.244 107.512 38.3804 101.034 36.2783L99.6731 36.8346L98.6807 35.5534C92.2899 33.6601 85.7088 32.5756 79.0889 32.3248L78.2043 33.267L76.8325 32.2647C70.648 32.1967 64.5041 33.0181 58.584 34.7045L58.1777 35.9597L56.5421 35.3454C51.2137 37.0796 46.2387 39.7369 41.8346 43.2011L41.996 44.5484L40.3486 44.3998C36.427 47.8152 33.2288 52.0002 30.939 56.7127L31.6869 58.0842L30.1886 58.414C28.1809 63.2221 27.1734 68.4173 27.2283 73.6799L28.4422 74.8545L27.274 75.6357C27.4197 78.3853 27.8117 81.1212 28.4451 83.8093C29.1055 86.6111 29.9948 89.3568 31.1038 92.0179L32.6609 92.8472L31.9844 93.9916C34.6113 99.635 38.0229 104.88 42.1126 109.562L43.7931 109.951L43.6786 111.306C48.2666 116.185 53.4257 120.476 59.0361 124.079L60.6335 123.983L61.107 125.389C66.9405 128.961 73.1536 131.832 79.6179 133.944ZM60.8388 123.641L59.0926 123.747C53.6073 120.183 48.5601 115.958 44.0644 111.167L44.1832 109.667L42.3299 109.243C38.3186 104.675 34.9637 99.5603 32.3684 94.0547L33.1321 92.7623L31.3646 91.8037C30.2914 89.1971 29.4254 86.5114 28.7749 83.7729C28.1567 81.152 27.7607 78.4869 27.5912 75.807L28.9689 74.8971L27.536 73.5263C27.5215 69.4947 28.1261 65.499 29.3281 61.6827C29.6356 60.6823 29.9983 59.6806 30.4067 58.7113L32.1843 58.3294L31.2976 56.7035C33.5394 52.146 36.646 48.0954 40.4434 44.7787L42.3739 44.9593L42.1613 43.3386C46.469 39.9817 51.3193 37.3972 56.5084 35.6939L58.3578 36.3924L58.8093 35.0407C64.6152 33.4028 70.6354 32.5999 76.6958 32.6551L78.2274 33.7711L79.2449 32.7133C85.7428 32.9738 92.2023 34.0366 98.4802 35.8781L99.5665 37.2803L101.052 36.6704C107.435 38.7412 113.575 41.5559 119.345 45.0572L119.857 46.5861L121.599 46.4968C127.09 50.0512 132.142 54.2688 136.643 59.0544L136.513 60.5605L138.377 60.9782C142.383 65.5498 145.738 70.6641 148.339 76.1665L147.564 77.4647L149.326 78.4123C150.409 81.0196 151.277 83.7096 151.921 86.4542C152.533 89.0565 152.919 91.7036 153.075 94.3647L151.714 95.2798L153.136 96.6566C153.155 100.686 152.554 104.68 151.355 108.494C151.037 109.5 150.674 110.502 150.276 111.466L148.477 111.859L149.364 113.485C147.133 118.033 144.032 122.071 140.238 125.37L138.318 125.184L138.537 126.816C134.233 130.17 129.386 132.753 124.201 134.454L122.335 133.751L121.887 135.186C116.083 136.814 110.067 137.614 104.011 137.566L102.474 136.439L101.462 137.508C94.9579 137.247 88.4917 136.189 82.2053 134.355L81.1069 132.931L79.6275 133.551C73.2647 131.471 67.1447 128.656 61.3893 125.163L60.8388 123.641Z" fill="url(#paint4_linear_314_370)"/>
<g style="mix-blend-mode:multiply" opacity="0.5">
<path d="M78.2823 53.0244L80.9953 64.8858C69.6993 66.8187 63.996 74.8791 66.4821 86.0191C68.9682 97.1592 78.3743 104.741 90.3175 106.098L92.8734 117.37L102.836 117.186L100.266 105.834C106.858 104.612 111.444 101.457 113.522 96.8166L103.117 91.5378C101.499 94.7808 98.1439 96.4676 93.3949 96.5653C90.27 96.6782 87.222 95.6677 84.7496 93.6992C82.2771 91.7306 80.5265 88.9205 79.7839 85.7282C78.302 79.1896 81.8857 74.6603 88.3831 74.5272L88.6795 74.5087C92.8224 74.4177 96.8328 75.882 99.9976 78.6412L107.699 72.7366C103.094 68.2874 97.2512 65.5128 90.9998 64.8069L88.2989 52.8365L78.2823 53.0244Z" fill="#03A798"/>
</g>
<g style="mix-blend-mode:multiply" opacity="0.5">
<path d="M100.469 128.318C72.5585 127.764 45.2898 107.9 39.7025 84.0674C34.1153 60.2346 52.2972 41.3116 80.2079 41.8655C108.119 42.4194 135.393 62.2945 140.975 86.1162C146.556 109.938 128.386 128.883 100.469 128.318ZM80.987 45.1145C55.1493 44.5917 38.322 62.1007 43.5221 84.1211C48.7221 106.142 73.9445 124.51 99.7391 125.057C125.534 125.603 142.383 108.082 137.204 86.05C132.026 64.0178 106.782 45.6608 80.9978 45.1086" fill="#03A798"/>
</g>
<defs>
<linearGradient id="paint0_linear_314_370" x1="5.73332" y1="35.008" x2="187.343" y2="182.087" gradientUnits="userSpaceOnUse">
<stop stop-color="#30AA64"/>
<stop offset="0.01" stop-color="#2CA55F"/>
<stop offset="0.05" stop-color="#1F944F"/>
<stop offset="0.11" stop-color="#168943"/>
<stop offset="0.18" stop-color="#10823D"/>
<stop offset="0.39" stop-color="#0F803B"/>
<stop offset="0.53" stop-color="#148B43"/>
<stop offset="0.77" stop-color="#21A957"/>
<stop offset="1" stop-color="#2FCA6E"/>
</linearGradient>
<linearGradient id="paint1_linear_314_370" x1="151.038" y1="133.608" x2="15.8362" y2="59.5471" gradientUnits="userSpaceOnUse">
<stop offset="0.07" stop-color="#30AA64"/>
<stop offset="0.1" stop-color="#2B9F5B"/>
<stop offset="0.14" stop-color="#269452"/>
<stop offset="0.21" stop-color="#238D4D"/>
<stop offset="0.39" stop-color="#228B4B"/>
<stop offset="0.54" stop-color="#249651"/>
<stop offset="0.83" stop-color="#2AB462"/>
<stop offset="1" stop-color="#2FCA6E"/>
</linearGradient>
<linearGradient id="paint2_linear_314_370" x1="16.6116" y1="85.9167" x2="138.592" y2="135.08" gradientUnits="userSpaceOnUse">
<stop stop-color="#76F192"/>
<stop offset="0.03" stop-color="#5CD680"/>
<stop offset="0.06" stop-color="#47C072"/>
<stop offset="0.1" stop-color="#36AF67"/>
<stop offset="0.15" stop-color="#2AA460"/>
<stop offset="0.21" stop-color="#249D5B"/>
<stop offset="0.39" stop-color="#229B5A"/>
<stop offset="0.54" stop-color="#25A65F"/>
<stop offset="0.8" stop-color="#2DC46C"/>
<stop offset="0.85" stop-color="#2FCA6E"/>
<stop offset="0.88" stop-color="#3AD074"/>
<stop offset="0.94" stop-color="#58E183"/>
<stop offset="1" stop-color="#79F494"/>
</linearGradient>
<linearGradient id="paint3_linear_314_370" x1="105.318" y1="37.6843" x2="72.8549" y2="131.604" gradientUnits="userSpaceOnUse">
<stop stop-color="#79F494"/>
<stop offset="0.23" stop-color="#6EEE8E"/>
<stop offset="0.63" stop-color="#50DD7F"/>
<stop offset="1" stop-color="#2FCA6E"/>
</linearGradient>
<linearGradient id="paint4_linear_314_370" x1="182.831" y1="61.0417" x2="64.5628" y2="93.2931" gradientUnits="userSpaceOnUse">
<stop stop-color="white"/>
<stop offset="0.09" stop-color="white" stop-opacity="0.96"/>
<stop offset="0.24" stop-color="white" stop-opacity="0.84"/>
<stop offset="0.44" stop-color="white" stop-opacity="0.65"/>
<stop offset="0.69" stop-color="white" stop-opacity="0.38"/>
<stop offset="0.96" stop-color="white" stop-opacity="0.04"/>
<stop offset="1" stop-color="white" stop-opacity="0"/>
</linearGradient>
</defs>
</svg>
