<svg width="54" height="54" viewBox="0 0 54 54" fill="none" xmlns="http://www.w3.org/2000/svg">
<path fill-rule="evenodd" clip-rule="evenodd" d="M36.1255 10.7136C36.1089 11.9889 36.5557 12.9489 37.7492 13.5901C37.5163 13.8234 37.2864 14.0511 37.0597 14.2757C36.4654 14.8646 35.8933 15.4313 35.3468 16.0174C35.0789 16.3054 34.9308 16.2212 34.6937 16.0174C33.1731 14.6982 32.3873 13.0389 32.3873 11.0241C32.3868 10.5786 32.3863 10.1331 32.3857 9.68762C32.382 6.90368 32.3784 4.12037 32.3968 1.33619C32.3992 0.852626 32.3281 0.684326 31.7781 0.684326C26.0029 0.702484 20.2269 0.701373 14.4514 0.700261C13.0643 0.699994 11.6773 0.699727 10.2903 0.699727C6.29849 0.702098 3.5168 3.49446 3.5168 7.49928V46.4856C3.49919 46.7783 3.5183 47.0722 3.57369 47.3602C3.6448 47.666 3.53102 47.8308 3.33665 48.0216C2.62315 48.7161 1.90966 49.4178 1.21987 50.1384C0.972124 50.3788 0.800328 50.6866 0.725753 51.0236C0.651178 51.3607 0.677098 51.7122 0.800302 52.0347C0.901883 52.365 1.09678 52.6588 1.36153 52.8809C1.62627 53.103 1.94957 53.2437 2.29248 53.2863C3.06168 53.4131 3.6294 53.0362 4.15563 52.51C15.5139 41.1446 26.8733 29.782 38.234 18.4222C42.9922 13.6584 47.7536 8.89782 52.5181 4.14039C52.9009 3.75757 53.2209 3.3546 53.2861 2.79636C53.3315 2.41481 53.258 2.02855 53.0758 1.69026C52.8937 1.35196 52.6116 1.07808 52.268 0.90596C51.5178 0.526693 50.7024 0.649949 50.0624 1.28522C47.8808 3.44783 45.7103 5.6227 43.5508 7.8098C43.2593 8.10492 43.104 8.16181 42.7721 7.84417C41.8862 6.99403 40.9792 6.16692 40.0722 5.33979C39.7792 5.0726 39.4863 4.80541 39.194 4.53744C38.3743 3.78654 37.5538 3.03728 36.6818 2.24098C36.5022 2.07703 36.3205 1.91108 36.1361 1.74272V2.43369C36.1361 3.23879 36.1383 4.04388 36.1404 4.84895C36.1455 6.80414 36.1507 8.75915 36.1255 10.7136ZM28.8732 17.1943C28.853 18.2515 28.0115 19.0254 26.8583 19.0254C25.4553 19.0296 24.0532 19.0274 22.652 19.0252C22.4517 19.0249 22.2514 19.0245 22.0511 19.0243H17.3008C16.1191 19.0219 15.261 18.2254 15.267 17.1469C15.2717 16.0956 16.1203 15.2719 17.2581 15.2719C20.4645 15.2624 23.6701 15.2624 26.8749 15.2719C28.0435 15.2766 28.8933 16.1086 28.8732 17.1943ZM22.5416 28.3403C22.1872 28.686 21.7118 28.8794 21.2167 28.8793C20.6974 28.8901 20.1774 28.8858 19.6593 28.8816C19.4952 28.8803 19.3312 28.8789 19.1675 28.8781C18.9459 28.8781 18.7242 28.8797 18.5026 28.8812C18.0593 28.8844 17.6161 28.8876 17.1728 28.8781C16.0942 28.8603 15.2539 28.0129 15.2705 26.9817C15.2829 26.4871 15.4881 26.0168 15.8424 25.6714C16.1967 25.3259 16.672 25.1327 17.1669 25.1328C18.5172 25.1178 19.8672 25.1178 21.2167 25.1328C21.4661 25.1314 21.7134 25.1795 21.9441 25.2743C22.1748 25.3691 22.3844 25.5087 22.5608 25.6851C22.7372 25.8615 22.8768 26.0711 22.9716 26.3018C23.0664 26.5325 23.1145 26.7797 23.1131 27.0292C23.101 27.524 22.8959 27.9946 22.5416 28.3403ZM28.2298 33.7122C27.8096 34.1305 27.3852 34.553 26.9556 34.9809L27.7011 34.9844C28.712 34.9844 29.7231 34.9833 30.7342 34.9821C32.7566 34.9797 34.7791 34.9773 36.8011 34.9844C38.1594 34.9892 39.0542 36.2467 38.6086 37.4864C38.3229 38.2805 37.6106 38.738 36.6186 38.738C32.3123 38.7443 28.0061 38.7423 23.6998 38.7321C23.5472 38.7252 23.3949 38.7521 23.2538 38.8106C23.1126 38.8692 22.9861 38.9581 22.8832 39.071C18.3194 43.6404 13.7563 48.2078 9.19404 52.7733C9.16434 52.8029 9.1307 52.8302 9.09676 52.8578C8.99797 52.9379 8.89675 53.02 8.88351 53.1691C9.245 53.3019 9.61953 53.3019 9.98931 53.3019C21.3223 53.3208 32.6545 53.3208 43.9859 53.3019C47.6209 53.2959 50.469 50.455 50.4773 46.8211C50.4863 41.5901 50.4869 36.3592 50.4875 31.1282C50.488 26.7685 50.4885 22.4087 50.4938 18.049C50.4938 17.6626 50.3931 17.569 50.0115 17.569C48.3095 17.5919 46.6068 17.5919 44.9032 17.569C44.7311 17.5629 44.5598 17.5954 44.4019 17.6641C44.244 17.7328 44.1035 17.836 43.9906 17.966C41.7972 20.1737 39.597 22.3742 37.3902 24.5676C37.2835 24.6736 37.1527 24.7549 36.9912 24.8554C36.9069 24.9079 36.8143 24.9655 36.7122 25.0346C38.17 25.3961 38.8456 26.202 38.7176 27.2024C38.5801 28.2726 37.7718 28.8818 36.4823 28.8818H33.4885C33.4805 28.8818 33.4726 28.8818 33.4647 28.8818C33.2572 28.8815 33.0694 28.8813 32.8959 29.0548C31.3653 30.5911 29.828 32.1214 28.2298 33.7122Z" fill="url(#paint0_linear_314_177)"/>
<defs>
<linearGradient id="paint0_linear_314_177" x1="26.4572" y1="52.0826" x2="26.4572" y2="1.05439" gradientUnits="userSpaceOnUse">
<stop stop-color="#08E693"/>
<stop offset="1" stop-color="#396B4E"/>
</linearGradient>
</defs>
</svg>
