<svg width="54" height="54" viewBox="0 0 54 54" fill="none" xmlns="http://www.w3.org/2000/svg">
<path fill-rule="evenodd" clip-rule="evenodd" d="M3.34522 5.12976C2.0531 6.24612 1.04248 7.56021 0.784335 9.32057L0.784141 9.32089C0.755259 9.33183 0.724608 9.3374 0.69372 9.33729V9.84337C0.690673 9.84763 0.687464 9.85187 0.684082 9.85609V10.9862C0.689423 10.9896 0.696311 10.9925 0.702983 10.9953H0.702985H0.702985C0.715181 11.0004 0.726657 11.0052 0.726657 11.0123C1.25943 13.4482 2.88522 15.0205 4.90648 16.2645C7.20648 17.6816 9.73718 18.4739 12.3818 18.9298C17.229 19.7633 22.0226 19.582 26.727 18.0716C29.049 17.3287 31.1966 16.259 32.9061 14.4671C35.3887 11.8581 35.4341 8.62714 33.0434 5.95364C31.7527 4.51185 30.1612 3.49023 28.394 2.75286C22.6337 0.34575 16.71 0.156253 10.6997 1.58157C7.99879 2.22145 5.47358 3.28976 3.34522 5.12976ZM14.3221 22.3009C9.28955 21.7654 4.58382 20.3936 0.69372 16.9457L0.695094 19.7126C0.700144 19.7191 0.704765 19.7258 0.708991 19.7325C0.704114 19.7268 0.699026 19.7211 0.69372 19.7154V20.229C0.724789 20.2275 0.755788 20.2331 0.784352 20.2455L0.785085 20.2416L0.785709 20.2426C0.892814 21.1667 1.28692 21.9741 1.8142 22.7211C2.86603 24.2123 4.30094 25.2532 5.90064 26.0661C9.56005 27.9239 13.4927 28.5762 17.5517 28.6586C17.8603 28.6586 17.9336 28.4896 18.0173 28.2966C18.0245 28.2801 18.0317 28.2634 18.0392 28.2466C18.9717 26.1309 20.2663 24.1941 21.8647 22.5234C21.8841 22.5034 21.9071 22.4848 21.9304 22.466C22.0066 22.4045 22.087 22.3395 22.0597 22.2103C20.7772 22.3572 19.5002 22.4726 18.2149 22.4849C16.9149 22.4991 15.615 22.4377 14.3221 22.3009ZM0.693649 35.435C2.28895 36.8553 4.11486 37.993 6.09281 38.7992C8.72541 39.8558 11.4982 40.5224 14.3234 40.7779C14.8434 40.8296 15.3656 40.8605 15.8858 40.8913L15.8862 40.8913L15.8865 40.8914L15.8868 40.8914L15.8872 40.8914L15.8875 40.8914C16.0988 40.904 16.3099 40.9164 16.5204 40.9303L16.5274 40.9308C16.7164 40.9429 16.8686 40.9526 16.9324 41.2049C17.4301 43.2292 18.2473 45.1612 19.3532 46.9282C19.3638 46.945 19.3648 46.967 19.3659 46.9949L19.3669 47.0154C19.3675 47.0251 19.3683 47.0354 19.3697 47.0463C18.6765 47.1466 17.975 47.1779 17.2756 47.1396C13.4844 47.0476 9.8003 46.4338 6.34548 44.7833C4.58512 43.9416 3.00876 42.8541 1.83061 41.2544C1.27275 40.4956 0.988589 39.6269 0.70228 38.7515L0.692274 38.7209L0.693649 35.435ZM6.14644 29.5785C4.14719 28.7708 2.3025 27.6239 0.69372 26.1882V28.9606L0.700203 28.9694L0.69372 28.9622V29.4758C0.724354 29.4786 0.754684 29.4841 0.784352 29.4923L0.784506 29.4915C0.792414 29.5373 0.799441 29.5834 0.806472 29.6296C0.822558 29.7351 0.83866 29.8407 0.865362 29.9437C1.27181 31.5215 2.233 32.7326 3.4853 33.7047C7.19414 36.587 11.558 37.4836 16.1058 37.8049C16.3929 37.8246 16.3809 37.6879 16.3637 37.4915L16.3612 37.463C16.2409 35.8395 16.351 34.2072 16.688 32.6145L16.6953 32.5785C16.7834 32.1427 16.8279 31.9229 16.7382 31.8066C16.6469 31.6883 16.4166 31.6771 15.952 31.6546L15.9245 31.6533C12.5549 31.4858 9.28406 30.8486 6.14644 29.5785ZM33.8013 53.0995C34.077 53.1282 34.3522 53.1568 34.5979 53.3134L35.106 53.3161C35.1189 53.3015 35.1347 53.2898 35.1525 53.2818C35.1702 53.2738 35.1895 53.2696 35.209 53.2696C35.2284 53.2696 35.2477 53.2738 35.2654 53.2818C35.2832 53.2898 35.2991 53.3015 35.3119 53.3161H37.3716C37.3845 53.3015 37.4004 53.2898 37.4181 53.2818C37.4359 53.2738 37.4552 53.2696 37.4746 53.2696C37.4941 53.2696 37.5134 53.2738 37.5311 53.2818C37.5489 53.2898 37.5647 53.3015 37.5776 53.3161H37.8852C38.3103 53.1685 38.7521 53.1089 39.1942 53.0493C39.4676 53.0125 39.7411 52.9756 40.0108 52.9179C49.6544 50.8486 55.5492 40.6146 52.4926 31.2223C49.1998 21.1023 37.8358 16.4652 28.3927 21.3879C21.7508 24.8469 18.053 32.6545 19.8051 39.9253C21.538 47.1178 26.1504 51.4692 33.3841 53.0387C33.5207 53.0702 33.6611 53.0848 33.8013 53.0995ZM35.1403 47.1548C34.8739 47.1603 34.7833 47.0903 34.797 46.8157C34.8121 46.5181 34.8106 46.22 34.8091 45.9246C34.8082 45.762 34.8074 45.6002 34.8094 45.4398C34.8094 45.2878 34.8192 45.1352 34.829 44.9828C34.8512 44.6382 34.8733 44.2942 34.7819 43.9582C34.698 43.6496 34.4137 43.5408 34.1229 43.4295C33.9569 43.366 33.7888 43.3016 33.6546 43.1988C33.1218 42.808 32.6759 42.3108 32.345 41.7389C32.0141 41.1669 31.8054 40.5325 31.7322 39.8758C31.691 39.5586 31.7596 39.4296 32.1208 39.4433C32.9062 39.4708 33.6944 39.457 34.4826 39.4433C34.7091 39.4406 34.7805 39.4927 34.8382 39.733C35.0497 40.5981 35.7912 41.1062 36.5738 40.9757C36.9504 40.912 37.2908 40.7134 37.5316 40.417C37.7724 40.1206 37.8971 39.7466 37.8825 39.365C37.8426 38.5274 37.1931 37.9315 36.2786 37.8944C34.0734 37.8038 32.2402 36.3153 31.8283 34.2556C31.382 32.0709 32.416 30.014 34.4757 29.0747C34.7435 28.9594 34.8094 28.8221 34.8094 28.5475C34.8037 28.1472 34.8044 27.7469 34.8051 27.3467C34.8059 26.8736 34.8067 26.4006 34.797 25.9275C34.7901 25.6405 34.8684 25.5513 35.1623 25.5595C35.9491 25.5801 36.7373 25.5787 37.5241 25.5595C37.8124 25.5526 37.8921 25.6323 37.8921 25.9248C37.8858 26.3136 37.8867 26.7028 37.8875 27.0919C37.8885 27.5589 37.8896 28.0259 37.8783 28.4925C37.8701 28.8042 37.9525 28.958 38.2559 29.0953C39.8117 29.8272 40.6933 31.0727 40.95 32.7726C41.0077 33.1612 40.9185 33.3054 40.4914 33.2834C39.78 33.2521 39.06 33.2667 38.3442 33.2812L38.2326 33.2834C37.9882 33.2875 37.9058 33.2257 37.8426 32.969C37.6312 32.1135 36.8705 31.6096 36.0891 31.7537C35.7158 31.823 35.3802 32.0252 35.1444 32.3228C34.9086 32.6204 34.7886 32.9934 34.8066 33.3727C34.8574 34.1856 35.5056 34.7801 36.383 34.82C38.6418 34.9216 40.453 36.4032 40.8649 38.4821C41.2961 40.6764 40.2662 42.6867 38.1887 43.6478C38.087 43.68 38.0001 43.7472 37.9435 43.8375C37.8869 43.9278 37.8643 44.0353 37.8797 44.1408C37.8855 44.5541 37.885 44.9694 37.8844 45.3853C37.8839 45.8608 37.8833 46.3369 37.8921 46.8116C37.8962 47.0766 37.8275 47.1617 37.5529 47.1548C36.7473 47.1374 35.9431 47.1374 35.1403 47.1548Z" fill="url(#paint0_linear_314_185)"/>
<defs>
<linearGradient id="paint0_linear_314_185" x1="26.4594" y1="52.0825" x2="26.4594" y2="1.05439" gradientUnits="userSpaceOnUse">
<stop stop-color="#08E693"/>
<stop offset="1" stop-color="#396B4E"/>
</linearGradient>
</defs>
</svg>
