<svg width="40" height="40" viewBox="0 0 40 40" fill="none" xmlns="http://www.w3.org/2000/svg">
<path d="M0.0156438 20.7953V19.2306C0.0688239 19.1805 0.0510977 19.1148 0.0552687 19.0533V18.8624C0.0552687 18.8008 0.0688239 18.7351 0.0156438 18.685V18.3721C0.104277 17.4448 0.191866 16.5195 0.39833 15.6058C0.906213 13.3815 1.78768 11.2596 3.0052 9.33041C4.33044 7.20585 6.0474 5.35271 8.06461 3.86971C10.6581 1.93172 13.689 0.663086 16.8894 0.176052C18.3847 -0.053433 19.8904 -0.00545231 21.3972 0.0300135C23.4681 0.0779967 25.4378 0.584949 27.3408 1.3339C30.2259 2.4584 32.8045 4.24907 34.8663 6.5599C37.6265 9.63291 39.321 13.2233 39.8715 17.3227C40.055 18.6788 39.9998 20.0421 39.9602 21.4076C39.9018 23.4364 39.4242 25.3714 38.7005 27.249C37.8825 29.3785 36.7005 31.3494 35.2073 33.0737C34.1263 34.3417 32.8915 35.47 31.5316 36.4326C28.9216 38.2852 25.902 39.4781 22.7309 39.9092C22.3367 39.9624 21.9331 39.9301 21.5379 40H21.3044C21.2564 39.9468 21.1918 39.9625 21.1323 39.9593C21.0729 39.9562 20.9769 39.9364 20.9144 40H20.5234C20.4631 39.9686 20.3962 39.9523 20.3284 39.9523C20.2605 39.9523 20.1936 39.9686 20.1334 40H19.8205C19.7466 39.968 19.667 39.9515 19.5864 39.9515C19.5059 39.9515 19.4262 39.968 19.3523 40H19.0395C18.9759 39.9364 18.8946 39.9677 18.8205 39.9593C18.7465 39.951 18.6975 39.9468 18.6495 40H18.3367C17.8028 39.8957 17.2575 39.9291 16.7205 39.8383C13.1678 39.2375 9.98118 37.8116 7.22207 35.5011C3.26589 32.1881 0.867566 27.9719 0.104275 22.8502C0.0458809 22.4559 0.0834198 22.0512 0 21.6579V21.345C0.0531801 21.2949 0.0354539 21.2281 0.0396249 21.1666V20.9757C0.0479669 20.911 0.0656956 20.8453 0.0156438 20.7953ZM28.3721 28.3453C29.2595 28.3453 29.6849 27.9938 29.8372 27.1155C30.4294 23.7121 31.0176 20.3081 31.6015 16.9034C31.6943 16.3683 31.6015 15.8864 31.1323 15.5474C30.663 15.2083 30.1938 15.249 29.7006 15.4921C28.271 16.1962 26.832 16.8836 25.4076 17.5981C25.1208 17.7421 24.9905 17.7348 24.8278 17.4291C23.6349 15.2386 22.4118 13.0731 21.2136 10.8899C20.9404 10.3913 20.5817 10.0773 19.9926 10.0762C19.4034 10.0752 19.0447 10.3892 18.7705 10.8846C17.5661 13.0752 16.3409 15.2657 15.1355 17.4563C14.9916 17.7181 14.879 17.741 14.6141 17.6096C13.1772 16.893 11.7257 16.2003 10.2836 15.4931C9.7914 15.2522 9.31278 15.2094 8.85084 15.5421C8.3889 15.8749 8.28046 16.3579 8.37327 16.8982C8.95651 20.2904 9.54148 23.6819 10.1282 27.0727C10.295 28.0261 10.7038 28.3495 11.6736 28.3495H19.9832C22.7785 28.3474 25.5737 28.346 28.369 28.3453H28.3721Z" fill="#04EF73"/>
</svg>
