<svg width="61" height="54" viewBox="0 0 61 54" fill="none" xmlns="http://www.w3.org/2000/svg">
<path d="M4.40333 28.6629C4.17984 24.7557 4.62995 20.9735 6.41476 17.4258C6.92269 16.4193 6.63201 15.3847 5.7271 14.9252C4.8222 14.4657 3.82038 14.8236 3.29525 15.8301C2.20124 17.9369 1.57609 20.1905 1.176 22.5239C1.0619 23.1991 1.12129 23.9039 0.736816 24.5557V25.0245C0.864973 25.0761 0.893104 25.1402 0.893104 25.2058V25.2574C0.841236 25.2505 0.788685 25.2505 0.736816 25.2574V25.4903C0.90717 25.5481 0.87435 25.5512 0.893104 25.4903V25.7763C0.893104 25.8419 0.866536 25.906 0.736816 25.9576V28.0628C0.864973 28.1159 0.893104 28.18 0.893104 28.2441V28.3206V28.8145C0.893104 28.8801 0.866536 28.9458 0.736816 28.9974V29.4662C1.08065 29.8398 1.00875 30.2758 1.06345 30.6837C1.41979 33.3406 2.09183 35.9037 3.34995 38.2887C3.83913 39.217 4.85031 39.539 5.72865 39.0904C5.93412 38.9882 6.11705 38.8459 6.26665 38.6719C6.41625 38.4979 6.52949 38.2956 6.5997 38.0772C6.66991 37.8587 6.69566 37.6283 6.67544 37.3997C6.65522 37.1711 6.58944 36.9489 6.48197 36.7461C5.18321 34.1955 4.56431 31.4839 4.40333 28.6629Z" fill="url(#paint0_linear_314_166)"/>
<path d="M60.5954 24.3495C60.3187 21.3425 59.6279 18.4465 58.226 15.7536C57.729 14.7971 56.6991 14.4627 55.8067 14.9362C54.9409 15.3942 54.6267 16.4053 55.1065 17.3446C56.5444 20.1578 57.1195 23.1773 57.1961 26.2999C57.2852 29.9446 56.7272 33.4657 55.0628 36.7712C54.9375 37.0198 54.874 37.2949 54.8776 37.5732C54.8811 37.8515 54.9517 38.1248 55.0832 38.3701C55.2147 38.6154 55.4034 38.8254 55.6333 38.9824C55.8631 39.1393 56.1274 39.2386 56.4037 39.2719C57.1727 39.375 57.8541 38.9765 58.2714 38.1575C60.053 34.6645 60.6673 30.9136 60.7188 27.0407C60.7336 26.142 60.6923 25.2431 60.5954 24.3495Z" fill="url(#paint1_linear_314_166)"/>
<path d="M12.4775 19.5703C12.3958 19.2269 12.2115 18.9166 11.949 18.6807C11.6866 18.4447 11.3584 18.2944 11.0084 18.2496C10.6585 18.1964 10.3008 18.2533 9.98465 18.4123C9.66852 18.5713 9.40966 18.8247 9.24388 19.1374C7.82635 21.5504 7.32152 24.1964 7.27307 26.4829C7.26213 29.8337 7.98263 32.7672 9.19699 34.7912C9.75962 35.7289 10.7599 36.0415 11.6382 35.546C12.5165 35.0506 12.7479 34.0394 12.2634 33.0642C10.2347 29.0174 10.2384 24.9705 12.2743 20.9237C12.4853 20.4892 12.6041 20.0501 12.4775 19.5703Z" fill="url(#paint2_linear_314_166)"/>
<path d="M49.9334 18.4497C49.041 18.9357 48.769 19.9813 49.3207 20.9675C50.3038 22.7241 50.7148 24.6246 50.7617 26.611C50.8179 28.9022 50.41 31.0902 49.2738 33.1204C49.1284 33.3582 49.0423 33.6275 49.0228 33.9055C49.0033 34.1835 49.051 34.4622 49.1618 34.7179C49.2726 34.9737 49.4432 35.199 49.6594 35.375C49.8756 35.5509 50.1309 35.6723 50.4038 35.7289C51.1633 35.9055 51.9073 35.5554 52.3543 34.7818C53.739 32.3765 54.2297 29.7477 54.2875 27.0127C54.2422 24.2886 53.7515 21.6786 52.3933 19.2827C51.8307 18.2871 50.8336 17.9589 49.9334 18.4497Z" fill="url(#paint3_linear_314_166)"/>
<path d="M46.5604 7.35001C46.5604 3.46938 43.7785 0.692141 39.8979 0.689015C33.8203 0.682763 27.7413 0.682763 21.6606 0.689015C17.7784 0.689015 14.9918 3.46782 14.9902 7.34064C14.9902 20.4532 14.9902 33.5658 14.9902 46.6784C14.9902 50.5168 17.7831 53.3065 21.6231 53.3112C27.7215 53.3175 33.8198 53.3175 39.9182 53.3112C40.483 53.3205 41.0467 53.2601 41.5967 53.1315C44.599 52.3844 46.5557 49.8854 46.5604 46.7424C46.5698 40.1564 46.5698 33.571 46.5604 26.9861C46.5625 20.4417 46.5625 13.8964 46.5604 7.35001ZM33.104 48.6304C32.3226 48.6476 31.5412 48.6304 30.7691 48.6304C29.997 48.6304 29.2515 48.6413 28.4935 48.6304C27.4589 48.6148 26.69 47.8661 26.6837 46.8878C26.6828 46.6539 26.7288 46.4221 26.8189 46.2062C26.909 45.9904 27.0414 45.7947 27.2083 45.6308C27.3753 45.467 27.5734 45.3382 27.7909 45.2521C28.0084 45.166 28.2409 45.1243 28.4748 45.1295C30.0126 45.115 31.55 45.115 33.0868 45.1295C33.3209 45.1251 33.5535 45.1678 33.7707 45.255C33.988 45.3422 34.1855 45.4722 34.3515 45.6372C34.5176 45.8022 34.6487 45.9989 34.7373 46.2156C34.8258 46.4323 34.8699 46.6646 34.867 46.8987C34.8604 47.3614 34.6715 47.8027 34.3415 48.1269C34.0114 48.4512 33.5667 48.6321 33.104 48.6304ZM33.0884 8.86914C31.5505 8.88268 30.0132 8.88268 28.4763 8.86914C28.2423 8.87353 28.0098 8.83098 27.7925 8.74402C27.5752 8.65706 27.3775 8.52745 27.2112 8.36282C27.0448 8.1982 26.9131 8.00191 26.8238 7.78555C26.7346 7.56918 26.6896 7.33712 26.6915 7.10307C26.7009 6.12627 27.473 5.38391 28.5076 5.36828C29.289 5.35734 30.0705 5.36828 30.8425 5.36828C31.5818 5.36828 32.321 5.36047 33.0603 5.36828C34.0965 5.38235 34.867 6.12784 34.8748 7.10464C34.8769 7.33881 34.832 7.57102 34.7427 7.7875C34.6534 8.00399 34.5216 8.20034 34.355 8.3649C34.1884 8.52947 33.9904 8.6589 33.7728 8.74551C33.5553 8.83213 33.3225 8.87417 33.0884 8.86914Z" fill="url(#paint4_linear_314_166)"/>
<defs>
<linearGradient id="paint0_linear_314_166" x1="3.64909" y1="38.7148" x2="3.64909" y2="14.9002" gradientUnits="userSpaceOnUse">
<stop stop-color="#08E693"/>
<stop offset="1" stop-color="#396B4E"/>
</linearGradient>
<linearGradient id="paint1_linear_314_166" x1="57.7402" y1="38.7121" x2="57.7402" y2="14.8959" gradientUnits="userSpaceOnUse">
<stop stop-color="#08E693"/>
<stop offset="1" stop-color="#396B4E"/>
</linearGradient>
<linearGradient id="paint2_linear_314_166" x1="9.84782" y1="35.3681" x2="9.84782" y2="18.3536" gradientUnits="userSpaceOnUse">
<stop stop-color="#08E693"/>
<stop offset="1" stop-color="#396B4E"/>
</linearGradient>
<linearGradient id="paint3_linear_314_166" x1="51.5995" y1="35.3625" x2="51.5995" y2="18.3482" gradientUnits="userSpaceOnUse">
<stop stop-color="#08E693"/>
<stop offset="1" stop-color="#396B4E"/>
</linearGradient>
<linearGradient id="paint4_linear_314_166" x1="30.4581" y1="52.0824" x2="30.4581" y2="1.05439" gradientUnits="userSpaceOnUse">
<stop stop-color="#08E693"/>
<stop offset="1" stop-color="#396B4E"/>
</linearGradient>
</defs>
</svg>
