<svg width="52" height="54" viewBox="0 0 52 54" fill="none" xmlns="http://www.w3.org/2000/svg">
<path fill-rule="evenodd" clip-rule="evenodd" d="M24.6746 3.7241C24.6746 3.49575 24.6735 3.26739 24.6724 3.03909V3.03894V3.03878V3.03863V3.03847V3.03831V3.03816V3.038C24.6702 2.58192 24.668 2.12605 24.6746 1.67081C24.6859 1.06624 25.0551 0.684326 25.5991 0.684326C26.1431 0.684326 26.5503 1.06201 26.5602 1.65531C26.5799 3.02417 26.5799 4.39303 26.5602 5.76189C26.5503 6.3876 26.1374 6.77233 25.5737 6.74837C25.0297 6.72723 24.6887 6.35095 24.6788 5.72806C24.6679 5.25355 24.6703 4.78184 24.6726 4.31292V4.31279V4.31246V4.31212V4.31178V4.31145V4.31112V4.31079V4.31046C24.6736 4.11452 24.6746 3.91907 24.6746 3.7241ZM3.86977 25.171L3.86838 25.171C3.64055 25.1719 3.41271 25.1728 3.18487 25.1728C3.00812 25.1725 2.83127 25.1717 2.65437 25.1709H2.6541H2.65383H2.65356H2.65329H2.65302H2.65275H2.65248H2.65221H2.65194H2.65167H2.6516H2.65154H2.65147H2.65141H2.65134H2.65128H2.65121H2.65115H2.65108H2.65102C2.1619 25.1688 1.67244 25.1666 1.18373 25.1728C0.586204 25.1813 0.181749 25.5547 0.163428 26.0846C0.159986 26.2128 0.182526 26.3403 0.229694 26.4596C0.276862 26.5788 0.347683 26.6872 0.437883 26.7783C0.528082 26.8695 0.635798 26.9414 0.754536 26.9897C0.873273 27.0381 1.00057 27.062 1.12877 27.0598C2.51642 27.0796 3.9036 27.0796 5.29031 27.0598C5.41844 27.0641 5.54606 27.0417 5.66511 26.9941C5.78416 26.9466 5.89205 26.8748 5.98197 26.7835C6.07189 26.6921 6.14187 26.583 6.18752 26.4632C6.23318 26.3434 6.25349 26.2155 6.24718 26.0874C6.23591 25.5505 5.83992 25.1813 5.23958 25.1728C4.78298 25.1672 4.32637 25.1691 3.86977 25.171ZM27.137 46.2372L27.1453 46.2372H27.1454H27.1454H27.1455H27.1456H27.1456H27.1457H27.1458H27.1459H27.1459H27.146H27.1461C28.7005 46.2393 30.2548 46.2414 31.8083 46.2245C32.2113 46.2245 32.2987 46.333 32.2931 46.7192C32.2677 48.1904 31.3587 49.1149 29.8861 49.1149H21.3502C19.869 49.1149 18.9742 48.2045 18.9418 46.7192C18.9333 46.3372 19.0164 46.2132 19.4265 46.2175C21.0189 46.2415 22.6113 46.2393 24.2037 46.2371C24.666 46.2364 25.1283 46.2358 25.5906 46.2358C26.1061 46.2358 26.6216 46.2365 27.137 46.2372ZM21.3939 51.043H29.8339C29.5521 52.1577 28.4641 53.1076 27.2733 53.2316C26.1737 53.3443 25.0654 53.3443 23.9658 53.2316C23.3704 53.1573 22.8097 52.9106 22.3527 52.5217C21.8957 52.1329 21.5624 51.6189 21.3939 51.043ZM48.0655 27.0781H46.1179C45.4682 27.0781 45.0355 26.6863 45.0454 26.1141C45.0553 25.542 45.4682 25.1911 46.0996 25.1868C47.4149 25.1803 48.7302 25.1803 50.0455 25.1868C50.7036 25.1868 51.1362 25.5857 51.125 26.148C51.1137 26.7103 50.7022 27.0682 50.0652 27.0767C49.6059 27.0825 49.1473 27.081 48.6893 27.0794H48.6889C48.481 27.0788 48.2731 27.0781 48.0655 27.0781ZM43.818 35.5299C43.6207 35.3968 43.3894 35.323 43.1514 35.3171C42.7596 35.3664 42.4327 35.5609 42.3129 35.9724C42.2344 36.182 42.2363 36.4132 42.3183 36.6214C42.4003 36.8296 42.5565 37.0001 42.7568 37.0998L43.3084 37.4195L43.3104 37.4207C44.2784 37.982 45.2462 38.543 46.218 39.0982C46.8113 39.4378 47.3398 39.3518 47.6413 38.8487C47.9429 38.3456 47.7597 37.8101 47.1425 37.4493C46.3421 36.9777 45.5389 36.5172 44.7353 36.0565L44.7348 36.0562L44.7333 36.0554C44.4282 35.8804 44.123 35.7055 43.818 35.5299ZM34.9101 8.18705C34.5944 8.77612 35.1032 9.46807 35.7711 9.46807C35.9128 9.47728 36.0544 9.44889 36.1816 9.38578C36.3088 9.32268 36.4171 9.2271 36.4955 9.10871C37.2537 7.82629 38.0076 6.54245 38.7249 5.23748C38.9603 4.80765 38.7362 4.30736 38.3135 4.07202C37.9189 3.85217 37.3763 3.92123 37.1381 4.31441C36.3701 5.58979 35.6147 6.87503 34.9101 8.18705ZM4.37002 39.311C3.94724 39.2729 3.63156 39.0728 3.50332 38.6613C3.37508 38.2498 3.44554 37.8538 3.81899 37.6312C5.09719 36.8673 6.38666 36.1204 7.69163 35.4031C8.11441 35.1692 8.51747 35.3608 8.79509 35.7399C8.93101 35.9169 8.99428 36.1391 8.97202 36.3612C8.94976 36.5833 8.84365 36.7885 8.67531 36.935C8.51556 37.0713 8.34114 37.1895 8.15528 37.2873C7.14061 37.8783 6.1236 38.4654 5.10423 39.0489L5.05692 39.0768C4.85075 39.1986 4.63835 39.3241 4.37002 39.311ZM14.2193 4.47827C14.0277 4.15414 13.7585 3.95967 13.464 3.95967C12.6029 3.95967 12.1872 4.72349 12.5874 5.43657C13.247 6.61331 13.9248 7.77876 14.6097 8.9414C14.9155 9.46001 15.4299 9.61784 15.9119 9.35149C16.3938 9.08514 16.5432 8.52284 16.2388 7.98451C15.6945 7.01989 15.1379 6.06098 14.5814 5.10231L14.2193 4.47827ZM43.219 16.9005C42.7568 16.8709 42.4426 16.6679 42.3143 16.2564C42.1861 15.8449 42.2551 15.4489 42.6272 15.2248C43.9025 14.4596 45.1892 13.7099 46.4942 12.994C46.9169 12.7643 47.4412 13.0067 47.6639 13.4168C47.8865 13.8269 47.8132 14.3469 47.4088 14.5921C46.3696 15.2237 45.3078 15.8278 44.2465 16.4316L44.2464 16.4317C44.0123 16.5648 43.7783 16.698 43.5446 16.8314C43.4406 16.872 43.3306 16.8954 43.219 16.9005ZM7.63529 16.8023C8.25114 17.1335 8.97409 16.6318 8.97409 15.9116C8.9705 15.7687 8.93172 15.6288 8.86117 15.5044C8.79062 15.3801 8.69048 15.275 8.56963 15.1986C7.3168 14.4629 6.06114 13.7301 4.79281 13.0255C4.58869 12.915 4.34934 12.8892 4.12634 12.9535C3.90333 13.0178 3.71453 13.1672 3.60059 13.3693C3.53509 13.4688 3.4899 13.5802 3.46762 13.6972C3.44535 13.8142 3.44641 13.9344 3.47077 14.051C3.49513 14.1676 3.5423 14.2782 3.60957 14.3764C3.67683 14.4747 3.76286 14.5587 3.86271 14.6236C5.09862 15.3733 6.35709 16.1132 7.63529 16.8023ZM41.6224 24.1581C40.4865 14.5569 31.0416 8.20815 21.6447 10.563C11.4065 13.1293 6.33031 24.8585 11.4671 34.0793C12.8089 36.5263 14.7722 38.5761 17.1591 40.0222C18.3879 40.7691 18.9911 41.8133 18.9516 43.2437C18.9516 43.3142 18.9537 43.3847 18.9557 43.4552V43.4553C18.9598 43.596 18.9638 43.7366 18.9516 43.8765C18.9093 44.2415 19.0404 44.3542 19.4153 44.3514C20.9516 44.3378 22.4871 44.3397 24.0224 44.3416H24.0235H24.0236C24.561 44.3423 25.0984 44.3429 25.6357 44.3429H31.5927C32.2889 44.3429 32.3325 44.3429 32.2804 43.651C32.1479 41.9204 32.9047 40.7944 34.3393 39.8277C39.8833 36.0819 42.4087 30.7943 41.6224 24.1581ZM35.4758 27.9955L35.4757 27.9955C35.116 27.9598 34.7401 27.9225 34.4802 28.0745C34.2647 28.2005 34.2161 28.4941 34.1663 28.7945C34.1393 28.9575 34.112 29.1226 34.0575 29.2639C33.8539 29.824 33.5927 30.3615 33.2781 30.8676C33.1132 31.1128 33.0921 31.2833 33.343 31.4863C33.4759 31.5938 33.591 31.7156 33.7055 31.8368L33.7056 31.8368L33.7056 31.8368C33.8072 31.9443 33.9082 32.0512 34.0208 32.1472C34.2604 32.3516 34.3168 32.5023 34.0448 32.7574C33.3782 33.3803 32.737 34.0258 32.1042 34.6923C31.8985 34.9065 31.7745 34.9164 31.5687 34.6923C31.4957 34.613 31.4227 34.5249 31.3488 34.4358L31.3487 34.4357C31.1118 34.1499 30.8658 33.8533 30.5822 33.7975C30.3605 33.755 30.0983 33.9299 29.8324 34.1072L29.8324 34.1073C29.7013 34.1947 29.5692 34.2828 29.4407 34.3457C28.8728 34.6223 28.2739 34.83 27.6566 34.9643C27.4368 35.0136 27.355 35.1053 27.3748 35.3138C27.3769 35.349 27.3769 35.3843 27.3748 35.4195C27.3748 35.5469 27.3882 35.6887 27.4017 35.8313C27.4345 36.1775 27.4677 36.5281 27.3099 36.6878C27.1096 36.8921 26.7594 36.8533 26.4074 36.8144C26.2495 36.7969 26.0911 36.7793 25.9458 36.7837C25.7207 36.7909 25.4954 36.7876 25.2703 36.7843H25.27H25.27C24.968 36.7798 24.6663 36.7754 24.366 36.7964C23.9559 36.826 23.7882 36.7033 23.8573 36.2862C23.869 36.1164 23.869 35.9459 23.8573 35.7761C24.0137 35.2279 23.7544 34.953 23.1118 34.8248C22.34 34.6498 21.609 34.3283 20.9584 33.8778C20.7132 33.7171 20.5751 33.7481 20.3947 33.9539C20.259 34.1108 20.1114 34.2538 19.9642 34.3964L19.9642 34.3964C19.8471 34.5099 19.7302 34.6232 19.6196 34.7431C19.4646 34.9122 19.3617 34.9094 19.1968 34.7431C18.5223 34.0516 17.8393 33.3681 17.1478 32.6926C16.973 32.5221 16.9448 32.4107 17.1365 32.2304C17.2259 32.1461 17.3279 32.0622 17.4309 31.9775L17.4309 31.9775C17.7239 31.7364 18.0249 31.4888 18.0666 31.2072C18.1045 30.9512 17.9172 30.6683 17.7275 30.3819C17.6353 30.2426 17.5425 30.1026 17.4747 29.9643C17.2221 29.4627 17.0382 28.9295 16.9279 28.3789C16.8673 28.0505 16.7236 27.9913 16.4375 28.0068C16.235 28.019 16.0316 28.0171 15.8285 28.0153C15.6798 28.0139 15.5312 28.0125 15.3834 28.0167C15.1565 28.0251 15.0748 27.9476 15.0776 27.7179C15.086 26.7343 15.086 25.7478 15.0776 24.7585C15.0776 24.5161 15.1833 24.4654 15.3961 24.4766C15.6535 24.4841 15.9116 24.4816 16.1695 24.4791C16.2984 24.4779 16.4272 24.4766 16.5559 24.4766C16.763 24.4766 16.8575 24.416 16.9068 24.1948C17.1171 23.2338 17.499 22.3186 18.0342 21.4932C18.0608 21.4657 18.0811 21.4326 18.0935 21.3964C18.1059 21.3602 18.1102 21.3216 18.106 21.2836C18.1018 21.2455 18.0893 21.2088 18.0694 21.1761C18.0494 21.1434 18.0225 21.1155 17.9905 21.0944C17.856 20.9689 17.7267 20.8377 17.5975 20.7067L17.5975 20.7066C17.4439 20.5508 17.2903 20.395 17.1281 20.2489C16.9646 20.0967 16.9477 19.9938 17.1168 19.8261C17.8214 19.1384 18.5176 18.4436 19.2025 17.7376C19.373 17.5628 19.4702 17.5966 19.6253 17.7488C19.7171 17.8434 19.8075 17.9529 19.8984 18.0631C20.134 18.3486 20.3732 18.6384 20.6498 18.6832C20.9101 18.7253 21.1964 18.5392 21.4854 18.3515C21.6219 18.2628 21.759 18.1738 21.8942 18.1082C22.3807 17.8655 22.8965 17.6864 23.4288 17.5755C23.7487 17.5121 23.9094 17.3937 23.8671 17.0315C23.8468 16.8555 23.8518 16.6771 23.8568 16.4984V16.4984C23.8611 16.3423 23.8655 16.186 23.853 16.0309C23.8305 15.7392 23.9489 15.6843 24.2138 15.6885C25.1439 15.704 26.0754 15.7082 27.0069 15.6885C27.317 15.6885 27.3917 15.7857 27.379 16.0774C27.3745 16.1841 27.3638 16.2958 27.353 16.4086L27.353 16.4086C27.3196 16.7578 27.2852 17.1173 27.4311 17.3697C27.5584 17.5898 27.8575 17.6422 28.1617 17.6955C28.3191 17.7231 28.4779 17.751 28.6149 17.8024C29.1925 18.0087 29.7463 18.2766 30.2666 18.6014C30.492 18.7508 30.6668 18.7931 30.8303 18.5451C30.8414 18.5314 30.8536 18.5186 30.8669 18.507C30.9628 18.4137 31.058 18.2986 31.1533 18.1834L31.1534 18.1834C31.3704 17.9211 31.5877 17.6584 31.8139 17.6516C32.0777 17.6428 32.2951 17.9151 32.5121 18.1869C32.607 18.3058 32.7018 18.4245 32.8004 18.5197C33.0477 18.7565 33.2871 18.9998 33.5275 19.244C33.7062 19.4256 33.8854 19.6077 34.0687 19.788C34.2562 19.9656 34.3013 20.0826 34.0814 20.2799C34.004 20.3496 33.9195 20.419 33.8341 20.4892L33.8339 20.4893C33.5463 20.7256 33.2479 20.9708 33.1696 21.2663C33.1045 21.5123 33.2814 21.7624 33.4638 22.0202C33.5657 22.1642 33.6692 22.3105 33.7333 22.46C33.9741 22.9857 34.1629 23.5337 34.2971 24.0961C34.3534 24.378 34.4619 24.5485 34.7804 24.4865C34.8151 24.483 34.85 24.483 34.8847 24.4865C35.5302 24.4865 35.8515 24.4865 36.0114 24.6471C36.1699 24.8064 36.1699 25.1234 36.1699 25.7548V25.7548C36.1699 25.9596 36.1684 26.1645 36.1668 26.3695V26.3697C36.1637 26.7797 36.1605 27.1899 36.1699 27.5995C36.1854 27.9011 36.115 28.0364 35.7711 28.0153V28.0209C35.6759 28.0154 35.5765 28.0055 35.4758 27.9955ZM20.3332 24.4828C20.0554 25.1475 19.9116 25.8605 19.91 26.5809C19.9055 27.301 20.0433 28.0149 20.3155 28.6815C20.5877 29.3482 20.9888 29.9545 21.496 30.4657C22.0031 30.9769 22.6062 31.3829 23.2707 31.6604C23.9352 31.9379 24.6479 32.0814 25.368 32.0827C26.824 32.0827 28.2204 31.505 29.2509 30.4764C30.2813 29.4478 30.8615 28.0524 30.8641 26.5964C30.8557 25.1511 30.2797 23.7669 29.2603 22.7423C28.241 21.7176 26.8598 21.1345 25.4145 21.1187C24.6941 21.1148 23.98 21.2531 23.3132 21.5257C22.6463 21.7983 22.0398 22.1998 21.5285 22.7073C21.0171 23.2147 20.6109 23.8181 20.3332 24.4828Z" fill="url(#paint0_linear_314_137)"/>
<defs>
<linearGradient id="paint0_linear_314_137" x1="25.1265" y1="52.0826" x2="25.1265" y2="1.05439" gradientUnits="userSpaceOnUse">
<stop stop-color="#08E693"/>
<stop offset="1" stop-color="#396B4E"/>
</linearGradient>
</defs>
</svg>
